M48
; DRILL file {KiCad 9.0.4} date 2025-10-17T22:53:12+0700
; FORMAT={-:-/ absolute / inch / decimal}
; #@! TF.CreationDate,2025-10-17T22:53:12+07:00
; #@! TF.GenerationSoftware,Kicad,Pcbnew,9.0.4
; #@! TF.FileFunction,Plated,1,2,PTH
FMAT,2
INCH
; #@! TA.AperFunction,Plated,PTH,ViaDrill
T1C0.0118
; #@! TA.AperFunction,Plated,PTH,ComponentDrill
T2C0.0315
; #@! TA.AperFunction,Plated,PTH,ComponentDrill
T3C0.0394
; #@! TA.AperFunction,Plated,PTH,ComponentDrill
T4C0.0433
; #@! TA.AperFunction,Plated,PTH,ComponentDrill
T5C0.0591
; #@! TA.AperFunction,Plated,PTH,ComponentDrill
T6C0.0598
; #@! TA.AperFunction,Plated,PTH,ComponentDrill
T7C0.1260
%
G90
G05
T1
X0.3543Y-1.6929
X0.3543Y-1.6535
X0.3543Y-1.7717
X0.3543Y-1.8504
X0.3543Y-1.9291
X0.3543Y-1.7323
X0.3543Y-1.811
X0.3543Y-1.8898
X0.4331Y-1.6535
X0.4331Y-1.6929
X0.4331Y-1.7323
X0.7087Y-1.6535
X0.7087Y-1.6929
X0.7087Y-1.7323
X0.7874Y-1.6535
X0.7874Y-1.6929
X0.7874Y-1.7323
X0.8661Y-1.6929
X0.8661Y-1.6535
X0.8661Y-1.7717
X0.8661Y-1.7323
X0.8661Y-1.811
X0.8661Y-1.9291
X1.063Y-1.6535
X1.1417Y-1.6142
X1.1417Y-1.6535
X1.2008Y-1.4764
X1.2008Y-1.5157
X1.2205Y-1.6142
X1.2205Y-1.6535
X1.3976Y-1.3976
X1.3976Y-1.4764
X1.3976Y-1.5551
X1.437Y-1.3976
X1.437Y-1.4764
X1.437Y-1.5551
T2
X0.315Y-1.5354
X0.5118Y-1.5354
X0.6299Y-1.5354
X0.8268Y-1.5354
X0.9917Y-1.4961
X0.9917Y-1.6339
X1.2917Y-1.4961
X1.2917Y-1.6339
X1.4173Y-1.3264
X1.4173Y-1.6264
X1.611Y-1.5354
X1.711Y-1.5354
X1.811Y-1.5354
T3
X0.2113Y-1.1811
X0.4082Y-1.1811
X1.1295Y-1.7913
X1.2295Y-1.7913
X1.3295Y-1.7913
X1.4295Y-1.7913
X1.5748Y-1.1811
X1.7717Y-1.1811
X1.811Y-0.812
X1.811Y-0.912
T4
X0.5118Y-1.811
X0.6066Y-0.8895
X0.6066Y-1.0791
X0.6118Y-1.811
X0.7118Y-1.811
X0.8895Y-0.6066
X0.8895Y-1.3619
X1.0791Y-0.6066
X1.0791Y-1.3619
X1.3619Y-0.8895
X1.3619Y-1.0791
T5
X0.5394Y-0.2953
X1.4291Y-0.2953
T6
X0.2756Y-0.4512
X0.2756Y-0.6512
X1.6929Y-0.4299
X1.6929Y-0.6299
T7
X0.1575Y-0.1575
X0.1575Y-1.811
X1.811Y-0.1575
X1.811Y-1.811
M30
