%TF.GenerationSoftware,KiCad,Pcbnew,9.0.4*%
%TF.CreationDate,2025-10-17T22:53:12+07:00*%
%TF.ProjectId,AC DC converter LM317,41432044-4320-4636-9f6e-766572746572,rev?*%
%TF.SameCoordinates,Original*%
%TF.FileFunction,Copper,L2,Bot*%
%TF.FilePolarity,Positive*%
%FSLAX46Y46*%
G04 Gerber Fmt 4.6, Leading zero omitted, Abs format (unit mm)*
G04 Created by KiCad (PCBNEW 9.0.4) date 2025-10-17 22:53:12*
%MOMM*%
%LPD*%
G01*
G04 APERTURE LIST*
G04 Aperture macros list*
%AMRoundRect*
0 Rectangle with rounded corners*
0 $1 Rounding radius*
0 $2 $3 $4 $5 $6 $7 $8 $9 X,Y pos of 4 corners*
0 Add a 4 corners polygon primitive as box body*
4,1,4,$2,$3,$4,$5,$6,$7,$8,$9,$2,$3,0*
0 Add four circle primitives for the rounded corners*
1,1,$1+$1,$2,$3*
1,1,$1+$1,$4,$5*
1,1,$1+$1,$6,$7*
1,1,$1+$1,$8,$9*
0 Add four rect primitives between the rounded corners*
20,1,$1+$1,$2,$3,$4,$5,0*
20,1,$1+$1,$4,$5,$6,$7,0*
20,1,$1+$1,$6,$7,$8,$9,0*
20,1,$1+$1,$8,$9,$2,$3,0*%
G04 Aperture macros list end*
%TA.AperFunction,ComponentPad*%
%ADD10C,6.400000*%
%TD*%
%TA.AperFunction,ComponentPad*%
%ADD11R,3.000000X3.000000*%
%TD*%
%TA.AperFunction,ComponentPad*%
%ADD12C,3.000000*%
%TD*%
%TA.AperFunction,ComponentPad*%
%ADD13RoundRect,0.249999X0.000000X-1.202083X1.202083X0.000000X0.000000X1.202083X-1.202083X0.000000X0*%
%TD*%
%TA.AperFunction,ComponentPad*%
%ADD14C,2.200000*%
%TD*%
%TA.AperFunction,ComponentPad*%
%ADD15C,1.600000*%
%TD*%
%TA.AperFunction,ComponentPad*%
%ADD16R,1.905000X2.000000*%
%TD*%
%TA.AperFunction,ComponentPad*%
%ADD17O,1.905000X2.000000*%
%TD*%
%TA.AperFunction,ComponentPad*%
%ADD18RoundRect,0.250000X-0.750000X-0.750000X0.750000X-0.750000X0.750000X0.750000X-0.750000X0.750000X0*%
%TD*%
%TA.AperFunction,ComponentPad*%
%ADD19C,2.000000*%
%TD*%
%TA.AperFunction,ComponentPad*%
%ADD20RoundRect,0.249999X1.202083X0.000000X0.000000X1.202083X-1.202083X0.000000X0.000000X-1.202083X0*%
%TD*%
%TA.AperFunction,ComponentPad*%
%ADD21O,1.500000X2.500000*%
%TD*%
%TA.AperFunction,ComponentPad*%
%ADD22RoundRect,0.250000X0.750000X0.750000X-0.750000X0.750000X-0.750000X-0.750000X0.750000X-0.750000X0*%
%TD*%
%TA.AperFunction,ComponentPad*%
%ADD23O,1.700000X2.500000*%
%TD*%
%TA.AperFunction,ComponentPad*%
%ADD24O,4.000000X2.000000*%
%TD*%
%TA.AperFunction,ComponentPad*%
%ADD25R,4.000000X2.000000*%
%TD*%
%TA.AperFunction,ViaPad*%
%ADD26C,0.600000*%
%TD*%
G04 APERTURE END LIST*
D10*
%TO.P,H2,1,1*%
%TO.N,GND*%
X46000000Y-4000000D03*
%TD*%
D11*
%TO.P,J1,1,Pin_1*%
%TO.N,Net-(J1-Pin_1)*%
X7000000Y-11460000D03*
D12*
%TO.P,J1,2,Pin_2*%
%TO.N,Net-(D3-K)*%
X7000000Y-16539999D03*
%TD*%
D13*
%TO.P,D3,1,K*%
%TO.N,Net-(D3-K)*%
X15407898Y-22592103D03*
D14*
%TO.P,D3,2,A*%
%TO.N,GND*%
X22592103Y-15407898D03*
%TD*%
D15*
%TO.P,C3,1*%
%TO.N,VOUT*%
X16000000Y-39000000D03*
%TO.P,C3,2*%
%TO.N,GND*%
X21000000Y-39000000D03*
%TD*%
D16*
%TO.P,U1,1,ADJ*%
%TO.N,Net-(J3-Pin_3)*%
X18079999Y-46000000D03*
D17*
%TO.P,U1,2,VO*%
%TO.N,VOUT*%
X15539999Y-46000000D03*
%TO.P,U1,3,VI*%
%TO.N,VIN 15V DC*%
X13000000Y-46000000D03*
%TD*%
D15*
%TO.P,R2,1*%
%TO.N,Net-(J3-Pin_4)*%
X25190000Y-41500000D03*
%TO.P,R2,2*%
%TO.N,Net-(R2-Pad2)*%
X32810000Y-41500000D03*
%TD*%
D18*
%TO.P,C4,1*%
%TO.N,VOUT*%
X40000000Y-30000000D03*
D19*
%TO.P,C4,2*%
%TO.N,GND*%
X45000000Y-30000000D03*
%TD*%
D13*
%TO.P,D2,1,K*%
%TO.N,VIN 15V DC*%
X27407898Y-34592103D03*
D14*
%TO.P,D2,2,A*%
%TO.N,Net-(D1-K)*%
X34592103Y-27407898D03*
%TD*%
D20*
%TO.P,D4,1,K*%
%TO.N,VIN 15V DC*%
X22592103Y-34592102D03*
D14*
%TO.P,D4,2,A*%
%TO.N,Net-(D3-K)*%
X15407898Y-27407897D03*
%TD*%
D21*
%TO.P,RV1,1,1*%
%TO.N,Net-(J3-Pin_1)*%
X40920001Y-39000000D03*
%TO.P,RV1,2,2*%
%TO.N,GND*%
X43460001Y-39000000D03*
%TO.P,RV1,3,3*%
X46000000Y-39000000D03*
%TD*%
D10*
%TO.P,H4,1,1*%
%TO.N,GND*%
X46000000Y-46000000D03*
%TD*%
D22*
%TO.P,C1,1*%
%TO.N,VIN 15V DC*%
X10367678Y-30000000D03*
D19*
%TO.P,C1,2*%
%TO.N,GND*%
X5367678Y-30000000D03*
%TD*%
D23*
%TO.P,J3,1,Pin_1*%
%TO.N,Net-(J3-Pin_1)*%
X36310000Y-45500000D03*
%TO.P,J3,2,Pin_2*%
X33770000Y-45500000D03*
%TO.P,J3,3,Pin_3*%
%TO.N,Net-(J3-Pin_3)*%
X31230001Y-45500000D03*
%TO.P,J3,4,Pin_4*%
%TO.N,Net-(J3-Pin_4)*%
X28690000Y-45500000D03*
%TD*%
D15*
%TO.P,R1,1*%
%TO.N,VOUT*%
X25190000Y-38000000D03*
%TO.P,R1,2*%
%TO.N,Net-(J3-Pin_4)*%
X32810000Y-38000000D03*
%TD*%
D24*
%TO.P,J4,1,Pin_1*%
%TO.N,GND*%
X46000000Y-20625000D03*
D25*
%TO.P,J4,2,Pin_2*%
%TO.N,VOUT*%
X46000000Y-23165000D03*
%TD*%
D12*
%TO.P,Fuse,1*%
%TO.N,Net-(J1-Pin_1)*%
X13700000Y-7500000D03*
%TO.P,Fuse,2*%
%TO.N,Net-(D1-K)*%
X36300000Y-7500000D03*
%TD*%
D10*
%TO.P,H1,1,1*%
%TO.N,GND*%
X4000000Y-4000000D03*
%TD*%
D15*
%TO.P,R3,1*%
%TO.N,Net-(R2-Pad2)*%
X36000000Y-41310000D03*
%TO.P,R3,2*%
%TO.N,GND*%
X36000000Y-33690000D03*
%TD*%
%TO.P,C2,1*%
%TO.N,VIN 15V DC*%
X13000000Y-39000000D03*
%TO.P,C2,2*%
%TO.N,GND*%
X8000000Y-39000000D03*
%TD*%
D20*
%TO.P,D1,1,K*%
%TO.N,Net-(D1-K)*%
X34592102Y-22592102D03*
D14*
%TO.P,D1,2,A*%
%TO.N,GND*%
X27407897Y-15407897D03*
%TD*%
D11*
%TO.P,J2,1,Pin_1*%
%TO.N,VOUT*%
X43000000Y-16000000D03*
D12*
%TO.P,J2,2,Pin_2*%
%TO.N,GND*%
X43000000Y-10920001D03*
%TD*%
D10*
%TO.P,H3,1,1*%
%TO.N,GND*%
X4000000Y-46000000D03*
%TD*%
D26*
%TO.N,GND*%
X21999999Y-45000000D03*
X27000000Y-42000000D03*
X18000000Y-44000000D03*
X9000000Y-49000000D03*
X9000001Y-46000000D03*
X36500000Y-37500000D03*
X9000001Y-44000000D03*
X20000000Y-43000000D03*
X9000000Y-47000000D03*
X17999999Y-42000000D03*
X30500000Y-38500000D03*
X22000000Y-49000000D03*
X30500000Y-37500000D03*
X29000000Y-41000000D03*
X31000000Y-42000000D03*
X19999999Y-42000000D03*
X9000000Y-42000000D03*
X20000000Y-44000000D03*
X22000000Y-46000000D03*
X36500000Y-39500000D03*
X11000000Y-42000000D03*
X36500000Y-35500000D03*
X35500000Y-37500000D03*
X9000000Y-45000000D03*
X9000001Y-48000000D03*
X35500000Y-35500000D03*
X11000000Y-43000000D03*
X31000000Y-41000000D03*
X22000000Y-44000000D03*
X29000000Y-42000000D03*
X8999999Y-43000000D03*
X11000000Y-44000000D03*
X21999999Y-42000000D03*
X18000000Y-43000000D03*
X35500000Y-39500000D03*
X21999998Y-43000000D03*
%TD*%
%TA.AperFunction,Conductor*%
%TO.N,GND*%
G36*
X46503244Y-500670D02*
G01*
X46807046Y-516592D01*
X46819953Y-517949D01*
X46951089Y-538718D01*
X47117209Y-565028D01*
X47129896Y-567724D01*
X47420625Y-645625D01*
X47432965Y-649635D01*
X47713938Y-757490D01*
X47725790Y-762767D01*
X47993968Y-899411D01*
X48005199Y-905896D01*
X48257608Y-1069812D01*
X48268109Y-1077441D01*
X48502010Y-1266850D01*
X48511655Y-1275535D01*
X48724464Y-1488344D01*
X48733149Y-1497989D01*
X48922558Y-1731890D01*
X48930187Y-1742391D01*
X49094101Y-1994796D01*
X49100591Y-2006036D01*
X49237231Y-2274206D01*
X49242510Y-2286064D01*
X49350363Y-2567033D01*
X49354374Y-2579376D01*
X49432273Y-2870097D01*
X49434971Y-2882794D01*
X49482050Y-3180046D01*
X49483407Y-3192953D01*
X49499330Y-3496756D01*
X49499500Y-3503246D01*
X49499500Y-46496753D01*
X49499330Y-46503243D01*
X49483407Y-46807046D01*
X49482050Y-46819953D01*
X49434971Y-47117205D01*
X49432273Y-47129902D01*
X49354374Y-47420623D01*
X49350363Y-47432966D01*
X49242510Y-47713935D01*
X49237231Y-47725793D01*
X49100591Y-47993963D01*
X49094101Y-48005203D01*
X48930187Y-48257608D01*
X48922558Y-48268109D01*
X48733149Y-48502010D01*
X48724464Y-48511655D01*
X48511655Y-48724464D01*
X48502010Y-48733149D01*
X48268109Y-48922558D01*
X48257608Y-48930187D01*
X48005203Y-49094101D01*
X47993963Y-49100591D01*
X47725793Y-49237231D01*
X47713935Y-49242510D01*
X47432966Y-49350363D01*
X47420623Y-49354374D01*
X47129902Y-49432273D01*
X47117205Y-49434971D01*
X46819953Y-49482050D01*
X46807046Y-49483407D01*
X46503244Y-49499330D01*
X46496754Y-49499500D01*
X3503246Y-49499500D01*
X3496756Y-49499330D01*
X3192953Y-49483407D01*
X3180046Y-49482050D01*
X2882794Y-49434971D01*
X2870097Y-49432273D01*
X2579376Y-49354374D01*
X2567033Y-49350363D01*
X2286064Y-49242510D01*
X2274206Y-49237231D01*
X2006036Y-49100591D01*
X1994796Y-49094101D01*
X1742391Y-48930187D01*
X1731890Y-48922558D01*
X1497989Y-48733149D01*
X1488344Y-48724464D01*
X1275535Y-48511655D01*
X1266850Y-48502010D01*
X1077441Y-48268109D01*
X1069812Y-48257608D01*
X905896Y-48005199D01*
X899408Y-47993963D01*
X762768Y-47725793D01*
X757489Y-47713935D01*
X649636Y-47432966D01*
X645625Y-47420623D01*
X605171Y-47269646D01*
X567724Y-47129896D01*
X565028Y-47117205D01*
X553573Y-47044882D01*
X524890Y-46863777D01*
X517949Y-46819953D01*
X516592Y-46807046D01*
X500670Y-46503243D01*
X500500Y-46496753D01*
X500500Y-45853881D01*
X11747000Y-45853881D01*
X11747000Y-46146118D01*
X11777853Y-46340913D01*
X11838797Y-46528482D01*
X11900456Y-46649494D01*
X11928338Y-46704215D01*
X12044265Y-46863775D01*
X12183725Y-47003235D01*
X12343285Y-47119162D01*
X12448485Y-47172764D01*
X12519017Y-47208702D01*
X12612801Y-47239174D01*
X12706588Y-47269647D01*
X12796807Y-47283936D01*
X12901382Y-47300500D01*
X12901387Y-47300500D01*
X13098618Y-47300500D01*
X13193052Y-47285542D01*
X13293412Y-47269647D01*
X13480985Y-47208701D01*
X13656715Y-47119162D01*
X13816275Y-47003235D01*
X13955735Y-46863775D01*
X14071662Y-46704215D01*
X14159515Y-46531793D01*
X14207488Y-46480999D01*
X14275309Y-46464204D01*
X14341444Y-46486741D01*
X14380484Y-46531795D01*
X14440455Y-46649494D01*
X14468337Y-46704215D01*
X14584264Y-46863775D01*
X14723724Y-47003235D01*
X14883284Y-47119162D01*
X14988484Y-47172764D01*
X15059016Y-47208702D01*
X15152800Y-47239174D01*
X15246587Y-47269647D01*
X15336806Y-47283936D01*
X15441381Y-47300500D01*
X15441386Y-47300500D01*
X15638617Y-47300500D01*
X15733051Y-47285542D01*
X15833411Y-47269647D01*
X16020984Y-47208701D01*
X16196714Y-47119162D01*
X16356274Y-47003235D01*
X16495734Y-46863775D01*
X16602682Y-46716572D01*
X16658010Y-46673908D01*
X16727624Y-46667929D01*
X16789419Y-46700534D01*
X16823776Y-46761373D01*
X16826999Y-46789459D01*
X16826999Y-47044856D01*
X16827001Y-47044882D01*
X16829912Y-47069987D01*
X16829914Y-47069991D01*
X16875292Y-47172764D01*
X16875293Y-47172765D01*
X16954734Y-47252206D01*
X17057508Y-47297585D01*
X17082634Y-47300500D01*
X19077363Y-47300499D01*
X19077378Y-47300497D01*
X19077381Y-47300497D01*
X19102486Y-47297586D01*
X19102487Y-47297585D01*
X19102490Y-47297585D01*
X19205264Y-47252206D01*
X19284705Y-47172765D01*
X19330084Y-47069991D01*
X19332999Y-47044865D01*
X19332998Y-45009448D01*
X27539500Y-45009448D01*
X27539500Y-45990551D01*
X27567829Y-46169410D01*
X27623787Y-46341636D01*
X27623788Y-46341639D01*
X27679664Y-46451300D01*
X27704478Y-46500000D01*
X27706006Y-46502997D01*
X27812441Y-46649494D01*
X27812445Y-46649499D01*
X27940500Y-46777554D01*
X27940505Y-46777558D01*
X28059174Y-46863775D01*
X28087006Y-46883996D01*
X28192484Y-46937740D01*
X28248360Y-46966211D01*
X28248363Y-46966212D01*
X28334476Y-46994191D01*
X28420591Y-47022171D01*
X28503429Y-47035291D01*
X28599449Y-47050500D01*
X28599454Y-47050500D01*
X28780551Y-47050500D01*
X28867259Y-47036765D01*
X28959409Y-47022171D01*
X29131639Y-46966211D01*
X29292994Y-46883996D01*
X29439501Y-46777553D01*
X29567553Y-46649501D01*
X29673996Y-46502994D01*
X29756211Y-46341639D01*
X29812171Y-46169409D01*
X29837526Y-46009323D01*
X29837527Y-46009318D01*
X29867456Y-45946183D01*
X29926768Y-45909252D01*
X29996630Y-45910250D01*
X30054863Y-45948860D01*
X30082473Y-46009317D01*
X30107830Y-46169410D01*
X30163788Y-46341636D01*
X30163789Y-46341639D01*
X30219665Y-46451300D01*
X30244479Y-46500000D01*
X30246007Y-46502997D01*
X30352442Y-46649494D01*
X30352446Y-46649499D01*
X30480501Y-46777554D01*
X30480506Y-46777558D01*
X30599175Y-46863775D01*
X30627007Y-46883996D01*
X30732485Y-46937740D01*
X30788361Y-46966211D01*
X30788364Y-46966212D01*
X30874477Y-46994191D01*
X30960592Y-47022171D01*
X31043430Y-47035291D01*
X31139450Y-47050500D01*
X31139455Y-47050500D01*
X31320552Y-47050500D01*
X31407260Y-47036765D01*
X31499410Y-47022171D01*
X31671640Y-46966211D01*
X31832995Y-46883996D01*
X31979502Y-46777553D01*
X32107554Y-46649501D01*
X32213997Y-46502994D01*
X32296212Y-46341639D01*
X32352172Y-46169409D01*
X32377527Y-46009323D01*
X32407456Y-45946189D01*
X32466768Y-45909258D01*
X32536630Y-45910256D01*
X32594863Y-45948866D01*
X32622473Y-46009323D01*
X32647829Y-46169411D01*
X32703787Y-46341636D01*
X32703788Y-46341639D01*
X32759664Y-46451300D01*
X32784478Y-46500000D01*
X32786006Y-46502997D01*
X32892441Y-46649494D01*
X32892445Y-46649499D01*
X33020500Y-46777554D01*
X33020505Y-46777558D01*
X33139174Y-46863775D01*
X33167006Y-46883996D01*
X33272484Y-46937740D01*
X33328360Y-46966211D01*
X33328363Y-46966212D01*
X33414476Y-46994191D01*
X33500591Y-47022171D01*
X33583429Y-47035291D01*
X33679449Y-47050500D01*
X33679454Y-47050500D01*
X33860551Y-47050500D01*
X33947259Y-47036765D01*
X34039409Y-47022171D01*
X34211639Y-46966211D01*
X34372994Y-46883996D01*
X34519501Y-46777553D01*
X34647553Y-46649501D01*
X34753996Y-46502994D01*
X34836211Y-46341639D01*
X34892171Y-46169409D01*
X34906422Y-46079425D01*
X34917527Y-46009321D01*
X34947456Y-45946186D01*
X35006768Y-45909255D01*
X35076630Y-45910253D01*
X35134863Y-45948863D01*
X35162473Y-46009321D01*
X35187829Y-46169410D01*
X35243787Y-46341636D01*
X35243788Y-46341639D01*
X35299664Y-46451300D01*
X35324478Y-46500000D01*
X35326006Y-46502997D01*
X35432441Y-46649494D01*
X35432445Y-46649499D01*
X35560500Y-46777554D01*
X35560505Y-46777558D01*
X35679174Y-46863775D01*
X35707006Y-46883996D01*
X35812484Y-46937740D01*
X35868360Y-46966211D01*
X35868363Y-46966212D01*
X35954476Y-46994191D01*
X36040591Y-47022171D01*
X36123429Y-47035291D01*
X36219449Y-47050500D01*
X36219454Y-47050500D01*
X36400551Y-47050500D01*
X36487259Y-47036765D01*
X36579409Y-47022171D01*
X36751639Y-46966211D01*
X36912994Y-46883996D01*
X37059501Y-46777553D01*
X37187553Y-46649501D01*
X37293996Y-46502994D01*
X37376211Y-46341639D01*
X37432171Y-46169409D01*
X37457526Y-46009324D01*
X37460500Y-45990551D01*
X37460500Y-45009448D01*
X37440129Y-44880838D01*
X37432171Y-44830591D01*
X37376211Y-44658361D01*
X37376211Y-44658360D01*
X37347740Y-44602484D01*
X37293996Y-44497006D01*
X37280396Y-44478287D01*
X37187558Y-44350505D01*
X37187554Y-44350500D01*
X37059499Y-44222445D01*
X37059494Y-44222441D01*
X36912997Y-44116006D01*
X36912996Y-44116005D01*
X36912994Y-44116004D01*
X36861300Y-44089664D01*
X36751639Y-44033788D01*
X36751636Y-44033787D01*
X36579410Y-43977829D01*
X36400551Y-43949500D01*
X36400546Y-43949500D01*
X36219454Y-43949500D01*
X36219449Y-43949500D01*
X36040589Y-43977829D01*
X35868363Y-44033787D01*
X35868360Y-44033788D01*
X35707002Y-44116006D01*
X35560505Y-44222441D01*
X35560500Y-44222445D01*
X35432445Y-44350500D01*
X35432441Y-44350505D01*
X35326006Y-44497002D01*
X35243788Y-44658360D01*
X35243787Y-44658363D01*
X35187829Y-44830589D01*
X35162473Y-44990678D01*
X35132544Y-45053813D01*
X35073232Y-45090744D01*
X35003369Y-45089746D01*
X34945137Y-45051136D01*
X34917527Y-44990678D01*
X34900129Y-44880838D01*
X34892171Y-44830591D01*
X34836211Y-44658361D01*
X34836211Y-44658360D01*
X34807740Y-44602484D01*
X34753996Y-44497006D01*
X34740396Y-44478287D01*
X34647558Y-44350505D01*
X34647554Y-44350500D01*
X34519499Y-44222445D01*
X34519494Y-44222441D01*
X34372997Y-44116006D01*
X34372996Y-44116005D01*
X34372994Y-44116004D01*
X34321300Y-44089664D01*
X34211639Y-44033788D01*
X34211636Y-44033787D01*
X34039410Y-43977829D01*
X33860551Y-43949500D01*
X33860546Y-43949500D01*
X33679454Y-43949500D01*
X33679449Y-43949500D01*
X33500589Y-43977829D01*
X33328363Y-44033787D01*
X33328360Y-44033788D01*
X33167002Y-44116006D01*
X33020505Y-44222441D01*
X33020500Y-44222445D01*
X32892445Y-44350500D01*
X32892441Y-44350505D01*
X32786006Y-44497002D01*
X32703788Y-44658360D01*
X32703787Y-44658363D01*
X32647829Y-44830589D01*
X32622473Y-44990676D01*
X32592543Y-45053810D01*
X32533232Y-45090741D01*
X32463369Y-45089743D01*
X32405137Y-45051133D01*
X32377527Y-44990675D01*
X32360130Y-44880838D01*
X32352172Y-44830591D01*
X32296212Y-44658361D01*
X32296212Y-44658360D01*
X32267741Y-44602484D01*
X32213997Y-44497006D01*
X32200397Y-44478287D01*
X32107559Y-44350505D01*
X32107555Y-44350500D01*
X31979500Y-44222445D01*
X31979495Y-44222441D01*
X31832998Y-44116006D01*
X31832997Y-44116005D01*
X31832995Y-44116004D01*
X31781301Y-44089664D01*
X31671640Y-44033788D01*
X31671637Y-44033787D01*
X31499411Y-43977829D01*
X31320552Y-43949500D01*
X31320547Y-43949500D01*
X31139455Y-43949500D01*
X31139450Y-43949500D01*
X30960590Y-43977829D01*
X30788364Y-44033787D01*
X30788361Y-44033788D01*
X30627003Y-44116006D01*
X30480506Y-44222441D01*
X30480501Y-44222445D01*
X30352446Y-44350500D01*
X30352442Y-44350505D01*
X30246007Y-44497002D01*
X30163789Y-44658360D01*
X30163788Y-44658363D01*
X30107830Y-44830589D01*
X30082473Y-44990682D01*
X30052543Y-45053816D01*
X29993232Y-45090747D01*
X29923369Y-45089749D01*
X29865137Y-45051139D01*
X29837527Y-44990681D01*
X29820129Y-44880838D01*
X29812171Y-44830591D01*
X29756211Y-44658361D01*
X29756211Y-44658360D01*
X29727740Y-44602484D01*
X29673996Y-44497006D01*
X29660396Y-44478287D01*
X29567558Y-44350505D01*
X29567554Y-44350500D01*
X29439499Y-44222445D01*
X29439494Y-44222441D01*
X29292997Y-44116006D01*
X29292996Y-44116005D01*
X29292994Y-44116004D01*
X29241300Y-44089664D01*
X29131639Y-44033788D01*
X29131636Y-44033787D01*
X28959410Y-43977829D01*
X28780551Y-43949500D01*
X28780546Y-43949500D01*
X28599454Y-43949500D01*
X28599449Y-43949500D01*
X28420589Y-43977829D01*
X28248363Y-44033787D01*
X28248360Y-44033788D01*
X28087002Y-44116006D01*
X27940505Y-44222441D01*
X27940500Y-44222445D01*
X27812445Y-44350500D01*
X27812441Y-44350505D01*
X27706006Y-44497002D01*
X27623788Y-44658360D01*
X27623787Y-44658363D01*
X27567829Y-44830589D01*
X27539500Y-45009448D01*
X19332998Y-45009448D01*
X19332998Y-44955136D01*
X19332996Y-44955117D01*
X19330085Y-44930012D01*
X19330084Y-44930010D01*
X19330084Y-44930009D01*
X19284705Y-44827235D01*
X19205264Y-44747794D01*
X19165764Y-44730353D01*
X19102491Y-44702415D01*
X19077364Y-44699500D01*
X17082642Y-44699500D01*
X17082616Y-44699502D01*
X17057511Y-44702413D01*
X17057507Y-44702415D01*
X16954734Y-44747793D01*
X16875293Y-44827234D01*
X16829914Y-44930006D01*
X16829914Y-44930008D01*
X16826999Y-44955131D01*
X16826999Y-45210539D01*
X16807314Y-45277578D01*
X16754510Y-45323333D01*
X16685352Y-45333277D01*
X16621796Y-45304252D01*
X16602681Y-45283425D01*
X16598433Y-45277578D01*
X16495734Y-45136225D01*
X16356274Y-44996765D01*
X16196714Y-44880838D01*
X16098095Y-44830589D01*
X16020981Y-44791297D01*
X15833412Y-44730353D01*
X15638617Y-44699500D01*
X15638612Y-44699500D01*
X15441386Y-44699500D01*
X15441381Y-44699500D01*
X15246585Y-44730353D01*
X15059016Y-44791297D01*
X14883283Y-44880838D01*
X14723721Y-44996767D01*
X14584266Y-45136222D01*
X14468333Y-45295789D01*
X14380483Y-45468204D01*
X14332509Y-45519000D01*
X14264688Y-45535795D01*
X14198553Y-45513257D01*
X14159514Y-45468204D01*
X14071661Y-45295784D01*
X14009727Y-45210539D01*
X13955735Y-45136225D01*
X13816275Y-44996765D01*
X13656715Y-44880838D01*
X13558096Y-44830589D01*
X13480982Y-44791297D01*
X13293413Y-44730353D01*
X13098618Y-44699500D01*
X13098613Y-44699500D01*
X12901387Y-44699500D01*
X12901382Y-44699500D01*
X12706586Y-44730353D01*
X12519017Y-44791297D01*
X12343284Y-44880838D01*
X12183722Y-44996767D01*
X12044267Y-45136222D01*
X11928338Y-45295784D01*
X11838797Y-45471517D01*
X11777853Y-45659086D01*
X11747000Y-45853881D01*
X500500Y-45853881D01*
X500500Y-41413389D01*
X24089500Y-41413389D01*
X24089500Y-41586611D01*
X24116598Y-41757701D01*
X24170127Y-41922445D01*
X24248768Y-42076788D01*
X24350586Y-42216928D01*
X24473072Y-42339414D01*
X24613212Y-42441232D01*
X24767555Y-42519873D01*
X24932299Y-42573402D01*
X25103389Y-42600500D01*
X25103390Y-42600500D01*
X25276610Y-42600500D01*
X25276611Y-42600500D01*
X25447701Y-42573402D01*
X25612445Y-42519873D01*
X25766788Y-42441232D01*
X25906928Y-42339414D01*
X26029414Y-42216928D01*
X26131232Y-42076788D01*
X26209873Y-41922445D01*
X26263402Y-41757701D01*
X26290500Y-41586611D01*
X26290500Y-41413389D01*
X31709500Y-41413389D01*
X31709500Y-41586611D01*
X31736598Y-41757701D01*
X31790127Y-41922445D01*
X31868768Y-42076788D01*
X31970586Y-42216928D01*
X32093072Y-42339414D01*
X32233212Y-42441232D01*
X32387555Y-42519873D01*
X32552299Y-42573402D01*
X32723389Y-42600500D01*
X32723390Y-42600500D01*
X32896610Y-42600500D01*
X32896611Y-42600500D01*
X33067701Y-42573402D01*
X33232445Y-42519873D01*
X33386788Y-42441232D01*
X33526928Y-42339414D01*
X33649414Y-42216928D01*
X33751232Y-42076788D01*
X33829873Y-41922445D01*
X33883402Y-41757701D01*
X33910500Y-41586611D01*
X33910500Y-41413389D01*
X33883402Y-41242299D01*
X33877258Y-41223389D01*
X34899500Y-41223389D01*
X34899500Y-41396611D01*
X34926598Y-41567701D01*
X34980127Y-41732445D01*
X35058768Y-41886788D01*
X35160586Y-42026928D01*
X35283072Y-42149414D01*
X35423212Y-42251232D01*
X35577555Y-42329873D01*
X35742299Y-42383402D01*
X35913389Y-42410500D01*
X35913390Y-42410500D01*
X36086610Y-42410500D01*
X36086611Y-42410500D01*
X36257701Y-42383402D01*
X36422445Y-42329873D01*
X36576788Y-42251232D01*
X36716928Y-42149414D01*
X36839414Y-42026928D01*
X36941232Y-41886788D01*
X37019873Y-41732445D01*
X37073402Y-41567701D01*
X37100500Y-41396611D01*
X37100500Y-41223389D01*
X37073402Y-41052299D01*
X37019873Y-40887555D01*
X36941232Y-40733212D01*
X36839414Y-40593072D01*
X36716928Y-40470586D01*
X36576788Y-40368768D01*
X36422445Y-40290127D01*
X36257701Y-40236598D01*
X36257699Y-40236597D01*
X36257698Y-40236597D01*
X36126271Y-40215781D01*
X36086611Y-40209500D01*
X35913389Y-40209500D01*
X35873728Y-40215781D01*
X35742302Y-40236597D01*
X35577552Y-40290128D01*
X35423211Y-40368768D01*
X35380913Y-40399500D01*
X35283072Y-40470586D01*
X35283070Y-40470588D01*
X35283069Y-40470588D01*
X35160588Y-40593069D01*
X35160588Y-40593070D01*
X35160586Y-40593072D01*
X35116859Y-40653256D01*
X35058768Y-40733211D01*
X34980128Y-40887552D01*
X34926597Y-41052302D01*
X34899500Y-41223389D01*
X33877258Y-41223389D01*
X33829873Y-41077555D01*
X33751232Y-40923212D01*
X33649414Y-40783072D01*
X33526928Y-40660586D01*
X33386788Y-40558768D01*
X33232445Y-40480127D01*
X33067701Y-40426598D01*
X33067699Y-40426597D01*
X33067698Y-40426597D01*
X32936271Y-40405781D01*
X32896611Y-40399500D01*
X32723389Y-40399500D01*
X32683728Y-40405781D01*
X32552302Y-40426597D01*
X32387552Y-40480128D01*
X32233211Y-40558768D01*
X32153256Y-40616859D01*
X32093072Y-40660586D01*
X32093070Y-40660588D01*
X32093069Y-40660588D01*
X31970588Y-40783069D01*
X31970588Y-40783070D01*
X31970586Y-40783072D01*
X31926859Y-40843256D01*
X31868768Y-40923211D01*
X31790128Y-41077552D01*
X31736597Y-41242302D01*
X31712157Y-41396611D01*
X31709500Y-41413389D01*
X26290500Y-41413389D01*
X26263402Y-41242299D01*
X26209873Y-41077555D01*
X26131232Y-40923212D01*
X26029414Y-40783072D01*
X25906928Y-40660586D01*
X25766788Y-40558768D01*
X25612445Y-40480127D01*
X25447701Y-40426598D01*
X25447699Y-40426597D01*
X25447698Y-40426597D01*
X25316271Y-40405781D01*
X25276611Y-40399500D01*
X25103389Y-40399500D01*
X25063728Y-40405781D01*
X24932302Y-40426597D01*
X24767552Y-40480128D01*
X24613211Y-40558768D01*
X24533256Y-40616859D01*
X24473072Y-40660586D01*
X24473070Y-40660588D01*
X24473069Y-40660588D01*
X24350588Y-40783069D01*
X24350588Y-40783070D01*
X24350586Y-40783072D01*
X24306859Y-40843256D01*
X24248768Y-40923211D01*
X24170128Y-41077552D01*
X24116597Y-41242302D01*
X24092157Y-41396611D01*
X24089500Y-41413389D01*
X500500Y-41413389D01*
X500500Y-40109230D01*
X7315031Y-40109230D01*
X7318651Y-40111859D01*
X7500968Y-40204755D01*
X7695582Y-40267990D01*
X7897683Y-40300000D01*
X8102317Y-40300000D01*
X8304417Y-40267990D01*
X8499031Y-40204755D01*
X8681346Y-40111860D01*
X8684966Y-40109230D01*
X20315031Y-40109230D01*
X20318651Y-40111859D01*
X20500968Y-40204755D01*
X20695582Y-40267990D01*
X20897683Y-40300000D01*
X21102317Y-40300000D01*
X21304417Y-40267990D01*
X21499031Y-40204755D01*
X21681346Y-40111860D01*
X21684966Y-40109230D01*
X21000001Y-39424264D01*
X21000000Y-39424264D01*
X20315031Y-40109230D01*
X8684966Y-40109230D01*
X8000001Y-39424264D01*
X8000000Y-39424264D01*
X7315031Y-40109230D01*
X500500Y-40109230D01*
X500500Y-38897682D01*
X6700000Y-38897682D01*
X6700000Y-39102317D01*
X6732009Y-39304417D01*
X6795244Y-39499031D01*
X6888139Y-39681347D01*
X6888146Y-39681359D01*
X6890767Y-39684966D01*
X6890769Y-39684967D01*
X7575736Y-39000000D01*
X7523075Y-38947339D01*
X7600000Y-38947339D01*
X7600000Y-39052661D01*
X7627259Y-39154394D01*
X7679920Y-39245606D01*
X7754394Y-39320080D01*
X7845606Y-39372741D01*
X7947339Y-39400000D01*
X8052661Y-39400000D01*
X8154394Y-39372741D01*
X8245606Y-39320080D01*
X8320080Y-39245606D01*
X8372741Y-39154394D01*
X8400000Y-39052661D01*
X8400000Y-38999999D01*
X8424264Y-38999999D01*
X8424264Y-39000000D01*
X9109230Y-39684966D01*
X9111860Y-39681346D01*
X9204755Y-39499031D01*
X9267990Y-39304417D01*
X9300000Y-39102317D01*
X9300000Y-38913389D01*
X11899500Y-38913389D01*
X11899500Y-39086611D01*
X11926598Y-39257701D01*
X11980127Y-39422445D01*
X12058768Y-39576788D01*
X12160586Y-39716928D01*
X12283072Y-39839414D01*
X12423212Y-39941232D01*
X12577555Y-40019873D01*
X12742299Y-40073402D01*
X12913389Y-40100500D01*
X12913390Y-40100500D01*
X13086610Y-40100500D01*
X13086611Y-40100500D01*
X13257701Y-40073402D01*
X13422445Y-40019873D01*
X13576788Y-39941232D01*
X13716928Y-39839414D01*
X13839414Y-39716928D01*
X13941232Y-39576788D01*
X14019873Y-39422445D01*
X14073402Y-39257701D01*
X14100500Y-39086611D01*
X14100500Y-38913389D01*
X14899500Y-38913389D01*
X14899500Y-39086611D01*
X14926598Y-39257701D01*
X14980127Y-39422445D01*
X15058768Y-39576788D01*
X15160586Y-39716928D01*
X15283072Y-39839414D01*
X15423212Y-39941232D01*
X15577555Y-40019873D01*
X15742299Y-40073402D01*
X15913389Y-40100500D01*
X15913390Y-40100500D01*
X16086610Y-40100500D01*
X16086611Y-40100500D01*
X16257701Y-40073402D01*
X16422445Y-40019873D01*
X16576788Y-39941232D01*
X16716928Y-39839414D01*
X16839414Y-39716928D01*
X16941232Y-39576788D01*
X17019873Y-39422445D01*
X17073402Y-39257701D01*
X17100500Y-39086611D01*
X17100500Y-38913389D01*
X17098012Y-38897682D01*
X19700000Y-38897682D01*
X19700000Y-39102317D01*
X19732009Y-39304417D01*
X19795244Y-39499031D01*
X19888139Y-39681347D01*
X19888146Y-39681359D01*
X19890767Y-39684966D01*
X19890769Y-39684967D01*
X20575736Y-39000000D01*
X20523075Y-38947339D01*
X20600000Y-38947339D01*
X20600000Y-39052661D01*
X20627259Y-39154394D01*
X20679920Y-39245606D01*
X20754394Y-39320080D01*
X20845606Y-39372741D01*
X20947339Y-39400000D01*
X21052661Y-39400000D01*
X21154394Y-39372741D01*
X21245606Y-39320080D01*
X21320080Y-39245606D01*
X21372741Y-39154394D01*
X21400000Y-39052661D01*
X21400000Y-38999999D01*
X21424264Y-38999999D01*
X21424264Y-39000000D01*
X22109230Y-39684966D01*
X22111860Y-39681346D01*
X22204755Y-39499031D01*
X22267990Y-39304417D01*
X22300000Y-39102317D01*
X22300000Y-38897682D01*
X22267990Y-38695582D01*
X22204755Y-38500968D01*
X22111859Y-38318651D01*
X22109230Y-38315031D01*
X21424264Y-38999999D01*
X21400000Y-38999999D01*
X21400000Y-38947339D01*
X21372741Y-38845606D01*
X21320080Y-38754394D01*
X21245606Y-38679920D01*
X21154394Y-38627259D01*
X21052661Y-38600000D01*
X20947339Y-38600000D01*
X20845606Y-38627259D01*
X20754394Y-38679920D01*
X20679920Y-38754394D01*
X20627259Y-38845606D01*
X20600000Y-38947339D01*
X20523075Y-38947339D01*
X19890768Y-38315032D01*
X19890767Y-38315032D01*
X19888136Y-38318655D01*
X19795245Y-38500965D01*
X19732009Y-38695582D01*
X19700000Y-38897682D01*
X17098012Y-38897682D01*
X17073402Y-38742299D01*
X17019873Y-38577555D01*
X16941232Y-38423212D01*
X16839414Y-38283072D01*
X16716928Y-38160586D01*
X16646858Y-38109677D01*
X16576786Y-38058766D01*
X16556648Y-38048506D01*
X16422445Y-37980127D01*
X16257701Y-37926598D01*
X16257699Y-37926597D01*
X16257698Y-37926597D01*
X16126271Y-37905781D01*
X16086611Y-37899500D01*
X15913389Y-37899500D01*
X15873728Y-37905781D01*
X15742302Y-37926597D01*
X15577552Y-37980128D01*
X15423211Y-38058768D01*
X15343256Y-38116859D01*
X15283072Y-38160586D01*
X15283070Y-38160588D01*
X15283069Y-38160588D01*
X15160588Y-38283069D01*
X15160588Y-38283070D01*
X15160586Y-38283072D01*
X15116859Y-38343256D01*
X15058768Y-38423211D01*
X14980128Y-38577552D01*
X14926597Y-38742302D01*
X14924682Y-38754394D01*
X14899500Y-38913389D01*
X14100500Y-38913389D01*
X14073402Y-38742299D01*
X14019873Y-38577555D01*
X13941232Y-38423212D01*
X13839414Y-38283072D01*
X13716928Y-38160586D01*
X13576788Y-38058768D01*
X13501023Y-38020164D01*
X13422447Y-37980128D01*
X13422446Y-37980127D01*
X13422445Y-37980127D01*
X13257701Y-37926598D01*
X13257699Y-37926597D01*
X13257698Y-37926597D01*
X13126271Y-37905781D01*
X13086611Y-37899500D01*
X12913389Y-37899500D01*
X12873728Y-37905781D01*
X12742302Y-37926597D01*
X12577552Y-37980128D01*
X12423211Y-38058768D01*
X12343256Y-38116859D01*
X12283072Y-38160586D01*
X12283070Y-38160588D01*
X12283069Y-38160588D01*
X12160588Y-38283069D01*
X12160588Y-38283070D01*
X12160586Y-38283072D01*
X12116859Y-38343256D01*
X12058768Y-38423211D01*
X11980128Y-38577552D01*
X11926597Y-38742302D01*
X11924682Y-38754394D01*
X11899500Y-38913389D01*
X9300000Y-38913389D01*
X9300000Y-38897682D01*
X9267990Y-38695582D01*
X9204755Y-38500968D01*
X9111859Y-38318651D01*
X9109230Y-38315031D01*
X8424264Y-38999999D01*
X8400000Y-38999999D01*
X8400000Y-38947339D01*
X8372741Y-38845606D01*
X8320080Y-38754394D01*
X8245606Y-38679920D01*
X8154394Y-38627259D01*
X8052661Y-38600000D01*
X7947339Y-38600000D01*
X7845606Y-38627259D01*
X7754394Y-38679920D01*
X7679920Y-38754394D01*
X7627259Y-38845606D01*
X7600000Y-38947339D01*
X7523075Y-38947339D01*
X6890768Y-38315032D01*
X6890767Y-38315032D01*
X6888136Y-38318655D01*
X6795245Y-38500965D01*
X6732009Y-38695582D01*
X6700000Y-38897682D01*
X500500Y-38897682D01*
X500500Y-37890767D01*
X7315032Y-37890767D01*
X7315032Y-37890768D01*
X8000000Y-38575736D01*
X8000001Y-38575736D01*
X8684967Y-37890769D01*
X8684966Y-37890767D01*
X20315032Y-37890767D01*
X20315032Y-37890768D01*
X21000000Y-38575736D01*
X21000001Y-38575736D01*
X21662346Y-37913389D01*
X24089500Y-37913389D01*
X24089500Y-38086611D01*
X24116598Y-38257701D01*
X24170127Y-38422445D01*
X24248768Y-38576788D01*
X24350586Y-38716928D01*
X24473072Y-38839414D01*
X24613212Y-38941232D01*
X24767555Y-39019873D01*
X24932299Y-39073402D01*
X25103389Y-39100500D01*
X25103390Y-39100500D01*
X25276610Y-39100500D01*
X25276611Y-39100500D01*
X25447701Y-39073402D01*
X25612445Y-39019873D01*
X25766788Y-38941232D01*
X25906928Y-38839414D01*
X26029414Y-38716928D01*
X26131232Y-38576788D01*
X26209873Y-38422445D01*
X26263402Y-38257701D01*
X26290500Y-38086611D01*
X26290500Y-37913389D01*
X31709500Y-37913389D01*
X31709500Y-38086611D01*
X31736598Y-38257701D01*
X31790127Y-38422445D01*
X31868768Y-38576788D01*
X31970586Y-38716928D01*
X32093072Y-38839414D01*
X32233212Y-38941232D01*
X32387555Y-39019873D01*
X32552299Y-39073402D01*
X32723389Y-39100500D01*
X32723390Y-39100500D01*
X32896610Y-39100500D01*
X32896611Y-39100500D01*
X33067701Y-39073402D01*
X33232445Y-39019873D01*
X33386788Y-38941232D01*
X33526928Y-38839414D01*
X33649414Y-38716928D01*
X33751232Y-38576788D01*
X33829873Y-38422445D01*
X33838293Y-38396530D01*
X39869501Y-38396530D01*
X39869501Y-39603469D01*
X39909869Y-39806412D01*
X39909871Y-39806420D01*
X39989059Y-39997596D01*
X40104025Y-40169657D01*
X40250343Y-40315975D01*
X40250346Y-40315977D01*
X40422403Y-40430941D01*
X40613581Y-40510130D01*
X40816531Y-40550499D01*
X40816535Y-40550500D01*
X40816536Y-40550500D01*
X41023467Y-40550500D01*
X41023468Y-40550499D01*
X41226421Y-40510130D01*
X41417599Y-40430941D01*
X41589656Y-40315977D01*
X41735978Y-40169655D01*
X41850942Y-39997598D01*
X41930131Y-39806420D01*
X41968816Y-39611934D01*
X42001200Y-39550024D01*
X42061916Y-39515450D01*
X42131685Y-39519189D01*
X42188358Y-39560055D01*
X42212906Y-39616727D01*
X42240779Y-39792706D01*
X42301582Y-39979835D01*
X42390905Y-40155143D01*
X42506556Y-40314321D01*
X42645679Y-40453444D01*
X42804859Y-40569097D01*
X42980168Y-40658420D01*
X43160000Y-40716850D01*
X43160001Y-40716850D01*
X43760001Y-40716850D01*
X43939833Y-40658420D01*
X44115142Y-40569097D01*
X44274322Y-40453444D01*
X44413445Y-40314321D01*
X44529098Y-40155141D01*
X44619515Y-39977686D01*
X44667489Y-39926890D01*
X44735310Y-39910094D01*
X44801445Y-39932631D01*
X44840485Y-39977685D01*
X44930904Y-40155143D01*
X45046555Y-40314321D01*
X45185678Y-40453444D01*
X45344858Y-40569097D01*
X45520167Y-40658420D01*
X45699999Y-40716850D01*
X45700000Y-40716850D01*
X46300000Y-40716850D01*
X46479832Y-40658420D01*
X46655141Y-40569097D01*
X46814321Y-40453444D01*
X46953444Y-40314321D01*
X47069095Y-40155143D01*
X47158418Y-39979835D01*
X47219221Y-39792705D01*
X47250000Y-39598382D01*
X47250000Y-39300000D01*
X46300000Y-39300000D01*
X46300000Y-40716850D01*
X45700000Y-40716850D01*
X45700000Y-39300000D01*
X43760001Y-39300000D01*
X43760001Y-40716850D01*
X43160001Y-40716850D01*
X43160001Y-39265686D01*
X43214395Y-39320080D01*
X43305607Y-39372741D01*
X43407340Y-39400000D01*
X43512662Y-39400000D01*
X43614395Y-39372741D01*
X43705607Y-39320080D01*
X43780081Y-39245606D01*
X43832742Y-39154394D01*
X43860001Y-39052661D01*
X43860001Y-38947339D01*
X45600000Y-38947339D01*
X45600000Y-39052661D01*
X45627259Y-39154394D01*
X45679920Y-39245606D01*
X45754394Y-39320080D01*
X45845606Y-39372741D01*
X45947339Y-39400000D01*
X46052661Y-39400000D01*
X46154394Y-39372741D01*
X46245606Y-39320080D01*
X46320080Y-39245606D01*
X46372741Y-39154394D01*
X46400000Y-39052661D01*
X46400000Y-38947339D01*
X46372741Y-38845606D01*
X46320080Y-38754394D01*
X46265686Y-38700000D01*
X46300000Y-38700000D01*
X47250000Y-38700000D01*
X47250000Y-38401617D01*
X47219221Y-38207294D01*
X47158418Y-38020164D01*
X47069095Y-37844856D01*
X46953444Y-37685678D01*
X46814321Y-37546555D01*
X46655143Y-37430904D01*
X46479837Y-37341582D01*
X46300000Y-37283148D01*
X46300000Y-38700000D01*
X46265686Y-38700000D01*
X46245606Y-38679920D01*
X46154394Y-38627259D01*
X46052661Y-38600000D01*
X45947339Y-38600000D01*
X45845606Y-38627259D01*
X45754394Y-38679920D01*
X45679920Y-38754394D01*
X45627259Y-38845606D01*
X45600000Y-38947339D01*
X43860001Y-38947339D01*
X43832742Y-38845606D01*
X43780081Y-38754394D01*
X43705607Y-38679920D01*
X43614395Y-38627259D01*
X43512662Y-38600000D01*
X43407340Y-38600000D01*
X43305607Y-38627259D01*
X43214395Y-38679920D01*
X43160001Y-38734314D01*
X43160001Y-37283148D01*
X43760001Y-37283148D01*
X43760001Y-38700000D01*
X45700000Y-38700000D01*
X45700000Y-37283148D01*
X45520162Y-37341582D01*
X45344856Y-37430904D01*
X45185678Y-37546555D01*
X45046555Y-37685678D01*
X44930904Y-37844856D01*
X44840485Y-38022314D01*
X44792510Y-38073110D01*
X44724689Y-38089905D01*
X44658554Y-38067368D01*
X44619515Y-38022313D01*
X44529098Y-37844858D01*
X44413445Y-37685678D01*
X44274322Y-37546555D01*
X44115144Y-37430904D01*
X43939838Y-37341582D01*
X43760001Y-37283148D01*
X43160001Y-37283148D01*
X42980163Y-37341582D01*
X42804857Y-37430904D01*
X42645679Y-37546555D01*
X42506556Y-37685678D01*
X42390905Y-37844856D01*
X42301582Y-38020164D01*
X42240779Y-38207293D01*
X42212906Y-38383272D01*
X42182976Y-38446406D01*
X42123664Y-38483337D01*
X42053802Y-38482339D01*
X41995569Y-38443729D01*
X41968816Y-38388064D01*
X41947932Y-38283072D01*
X41930131Y-38193580D01*
X41850942Y-38002402D01*
X41735978Y-37830345D01*
X41735976Y-37830342D01*
X41589658Y-37684024D01*
X41430314Y-37577555D01*
X41417599Y-37569059D01*
X41226421Y-37489870D01*
X41226413Y-37489868D01*
X41023470Y-37449500D01*
X41023466Y-37449500D01*
X40816536Y-37449500D01*
X40816531Y-37449500D01*
X40613588Y-37489868D01*
X40613580Y-37489870D01*
X40422404Y-37569058D01*
X40250343Y-37684024D01*
X40104025Y-37830342D01*
X39989059Y-38002403D01*
X39909871Y-38193579D01*
X39909869Y-38193587D01*
X39869501Y-38396530D01*
X33838293Y-38396530D01*
X33883402Y-38257701D01*
X33910500Y-38086611D01*
X33910500Y-37913389D01*
X33883402Y-37742299D01*
X33829873Y-37577555D01*
X33751232Y-37423212D01*
X33649414Y-37283072D01*
X33526928Y-37160586D01*
X33386788Y-37058768D01*
X33232445Y-36980127D01*
X33067701Y-36926598D01*
X33067699Y-36926597D01*
X33067698Y-36926597D01*
X32936271Y-36905781D01*
X32896611Y-36899500D01*
X32723389Y-36899500D01*
X32683728Y-36905781D01*
X32552302Y-36926597D01*
X32387552Y-36980128D01*
X32233211Y-37058768D01*
X32153256Y-37116859D01*
X32093072Y-37160586D01*
X32093070Y-37160588D01*
X32093069Y-37160588D01*
X31970588Y-37283069D01*
X31970588Y-37283070D01*
X31970586Y-37283072D01*
X31970531Y-37283148D01*
X31868768Y-37423211D01*
X31790128Y-37577552D01*
X31736597Y-37742302D01*
X31720354Y-37844858D01*
X31709500Y-37913389D01*
X26290500Y-37913389D01*
X26263402Y-37742299D01*
X26209873Y-37577555D01*
X26131232Y-37423212D01*
X26029414Y-37283072D01*
X25906928Y-37160586D01*
X25766788Y-37058768D01*
X25612445Y-36980127D01*
X25447701Y-36926598D01*
X25447699Y-36926597D01*
X25447698Y-36926597D01*
X25316271Y-36905781D01*
X25276611Y-36899500D01*
X25103389Y-36899500D01*
X25063728Y-36905781D01*
X24932302Y-36926597D01*
X24767552Y-36980128D01*
X24613211Y-37058768D01*
X24533256Y-37116859D01*
X24473072Y-37160586D01*
X24473070Y-37160588D01*
X24473069Y-37160588D01*
X24350588Y-37283069D01*
X24350588Y-37283070D01*
X24350586Y-37283072D01*
X24350531Y-37283148D01*
X24248768Y-37423211D01*
X24170128Y-37577552D01*
X24116597Y-37742302D01*
X24100354Y-37844858D01*
X24089500Y-37913389D01*
X21662346Y-37913389D01*
X21684967Y-37890768D01*
X21684966Y-37890767D01*
X21681359Y-37888146D01*
X21681347Y-37888139D01*
X21499031Y-37795244D01*
X21304417Y-37732009D01*
X21102317Y-37700000D01*
X20897683Y-37700000D01*
X20695582Y-37732009D01*
X20500965Y-37795245D01*
X20318655Y-37888136D01*
X20315032Y-37890767D01*
X8684966Y-37890767D01*
X8681359Y-37888146D01*
X8681347Y-37888139D01*
X8499031Y-37795244D01*
X8304417Y-37732009D01*
X8102317Y-37700000D01*
X7897683Y-37700000D01*
X7695582Y-37732009D01*
X7500965Y-37795245D01*
X7318655Y-37888136D01*
X7315032Y-37890767D01*
X500500Y-37890767D01*
X500500Y-34592102D01*
X20834344Y-34592102D01*
X20854950Y-34742018D01*
X20854950Y-34742019D01*
X20854951Y-34742021D01*
X20915240Y-34880822D01*
X20970281Y-34950886D01*
X20970284Y-34950889D01*
X20970288Y-34950894D01*
X22233309Y-36213914D01*
X22233329Y-36213932D01*
X22303379Y-36268962D01*
X22303383Y-36268965D01*
X22442184Y-36329254D01*
X22592103Y-36349861D01*
X22742022Y-36329254D01*
X22880823Y-36268965D01*
X22950887Y-36213924D01*
X24213924Y-34950886D01*
X24268966Y-34880822D01*
X24329255Y-34742021D01*
X24349862Y-34592103D01*
X25650139Y-34592103D01*
X25670745Y-34742019D01*
X25670745Y-34742020D01*
X25670746Y-34742022D01*
X25731035Y-34880823D01*
X25786076Y-34950887D01*
X25786079Y-34950890D01*
X25786083Y-34950895D01*
X27049104Y-36213915D01*
X27049124Y-36213933D01*
X27119173Y-36268962D01*
X27119178Y-36268966D01*
X27257979Y-36329255D01*
X27407898Y-36349862D01*
X27557817Y-36329255D01*
X27696618Y-36268966D01*
X27766682Y-36213925D01*
X29029719Y-34950887D01*
X29029729Y-34950875D01*
X29073816Y-34894755D01*
X29084761Y-34880823D01*
X29120201Y-34799230D01*
X35315031Y-34799230D01*
X35318651Y-34801859D01*
X35500968Y-34894755D01*
X35695582Y-34957990D01*
X35897683Y-34990000D01*
X36102317Y-34990000D01*
X36304417Y-34957990D01*
X36499031Y-34894755D01*
X36681346Y-34801860D01*
X36684966Y-34799230D01*
X36000001Y-34114264D01*
X36000000Y-34114264D01*
X35315031Y-34799230D01*
X29120201Y-34799230D01*
X29145050Y-34742022D01*
X29165657Y-34592103D01*
X29145050Y-34442184D01*
X29084761Y-34303383D01*
X29029720Y-34233319D01*
X29029715Y-34233314D01*
X29029712Y-34233310D01*
X28466899Y-33670497D01*
X28384084Y-33587682D01*
X34700000Y-33587682D01*
X34700000Y-33792317D01*
X34732009Y-33994417D01*
X34795244Y-34189031D01*
X34888139Y-34371347D01*
X34888146Y-34371359D01*
X34890767Y-34374966D01*
X34890769Y-34374967D01*
X35575736Y-33690000D01*
X35523075Y-33637339D01*
X35600000Y-33637339D01*
X35600000Y-33742661D01*
X35627259Y-33844394D01*
X35679920Y-33935606D01*
X35754394Y-34010080D01*
X35845606Y-34062741D01*
X35947339Y-34090000D01*
X36052661Y-34090000D01*
X36154394Y-34062741D01*
X36245606Y-34010080D01*
X36320080Y-33935606D01*
X36372741Y-33844394D01*
X36400000Y-33742661D01*
X36400000Y-33689999D01*
X36424264Y-33689999D01*
X36424264Y-33690000D01*
X37109230Y-34374966D01*
X37111860Y-34371346D01*
X37204755Y-34189031D01*
X37267990Y-33994417D01*
X37300000Y-33792317D01*
X37300000Y-33587682D01*
X37267990Y-33385582D01*
X37204755Y-33190968D01*
X37111859Y-33008651D01*
X37109230Y-33005031D01*
X36424264Y-33689999D01*
X36400000Y-33689999D01*
X36400000Y-33637339D01*
X36372741Y-33535606D01*
X36320080Y-33444394D01*
X36245606Y-33369920D01*
X36154394Y-33317259D01*
X36052661Y-33290000D01*
X35947339Y-33290000D01*
X35845606Y-33317259D01*
X35754394Y-33369920D01*
X35679920Y-33444394D01*
X35627259Y-33535606D01*
X35600000Y-33637339D01*
X35523075Y-33637339D01*
X34890768Y-33005032D01*
X34890767Y-33005032D01*
X34888136Y-33008655D01*
X34795245Y-33190965D01*
X34732009Y-33385582D01*
X34700000Y-33587682D01*
X28384084Y-33587682D01*
X27766691Y-32970290D01*
X27766671Y-32970272D01*
X27696621Y-32915242D01*
X27696618Y-32915240D01*
X27696616Y-32915239D01*
X27557817Y-32854951D01*
X27557814Y-32854950D01*
X27557815Y-32854950D01*
X27407898Y-32834344D01*
X27257981Y-32854950D01*
X27119178Y-32915240D01*
X27049105Y-32970288D01*
X25786085Y-34233309D01*
X25786067Y-34233329D01*
X25731037Y-34303379D01*
X25731035Y-34303382D01*
X25670745Y-34442186D01*
X25650139Y-34592103D01*
X24349862Y-34592103D01*
X24349862Y-34592102D01*
X24329255Y-34442183D01*
X24268966Y-34303382D01*
X24213925Y-34233318D01*
X24213920Y-34233313D01*
X24213917Y-34233309D01*
X22950896Y-32970289D01*
X22950876Y-32970271D01*
X22880826Y-32915241D01*
X22880823Y-32915239D01*
X22742022Y-32854950D01*
X22742019Y-32854949D01*
X22742020Y-32854949D01*
X22592103Y-32834343D01*
X22442186Y-32854949D01*
X22303383Y-32915239D01*
X22233310Y-32970287D01*
X20970290Y-34233308D01*
X20970272Y-34233328D01*
X20915242Y-34303378D01*
X20915240Y-34303381D01*
X20854950Y-34442185D01*
X20834344Y-34592102D01*
X500500Y-34592102D01*
X500500Y-32580767D01*
X35315032Y-32580767D01*
X35315032Y-32580768D01*
X36000000Y-33265736D01*
X36000001Y-33265736D01*
X36684967Y-32580769D01*
X36684966Y-32580767D01*
X36681359Y-32578146D01*
X36681347Y-32578139D01*
X36499031Y-32485244D01*
X36304417Y-32422009D01*
X36102317Y-32390000D01*
X35897683Y-32390000D01*
X35695582Y-32422009D01*
X35500965Y-32485245D01*
X35318655Y-32578136D01*
X35315032Y-32580767D01*
X500500Y-32580767D01*
X500500Y-29881947D01*
X3867678Y-29881947D01*
X3867678Y-30118052D01*
X3904612Y-30351247D01*
X3977575Y-30575802D01*
X4084759Y-30786163D01*
X4084767Y-30786176D01*
X4115262Y-30828149D01*
X4115264Y-30828150D01*
X4869772Y-30073641D01*
X4901753Y-30192993D01*
X4967579Y-30307007D01*
X5060671Y-30400099D01*
X5174685Y-30465925D01*
X5294036Y-30497905D01*
X4539527Y-31252413D01*
X4581506Y-31282914D01*
X4791875Y-31390102D01*
X5016430Y-31463065D01*
X5016429Y-31463065D01*
X5249626Y-31500000D01*
X5485730Y-31500000D01*
X5718925Y-31463065D01*
X5943480Y-31390102D01*
X6153849Y-31282914D01*
X6195827Y-31252413D01*
X5441319Y-30497905D01*
X5560671Y-30465925D01*
X5674685Y-30400099D01*
X5767777Y-30307007D01*
X5833603Y-30192993D01*
X5865583Y-30073641D01*
X6620091Y-30828149D01*
X6650592Y-30786171D01*
X6757780Y-30575802D01*
X6830743Y-30351247D01*
X6867678Y-30118052D01*
X6867678Y-29881947D01*
X6830743Y-29648752D01*
X6757780Y-29424197D01*
X6673857Y-29259487D01*
X6650592Y-29213828D01*
X6645557Y-29206898D01*
X9067178Y-29206898D01*
X9067178Y-30793102D01*
X9071387Y-30828149D01*
X9077800Y-30881561D01*
X9133317Y-31022343D01*
X9224755Y-31142922D01*
X9345334Y-31234360D01*
X9345335Y-31234360D01*
X9345336Y-31234361D01*
X9486114Y-31289877D01*
X9574576Y-31300500D01*
X9574581Y-31300500D01*
X11160775Y-31300500D01*
X11160780Y-31300500D01*
X11249242Y-31289877D01*
X11390020Y-31234361D01*
X11510600Y-31142922D01*
X11602039Y-31022342D01*
X11657555Y-30881564D01*
X11668178Y-30793102D01*
X11668178Y-29206898D01*
X38699500Y-29206898D01*
X38699500Y-30793102D01*
X38703709Y-30828149D01*
X38710122Y-30881561D01*
X38765639Y-31022343D01*
X38857077Y-31142922D01*
X38977656Y-31234360D01*
X38977657Y-31234360D01*
X38977658Y-31234361D01*
X39118436Y-31289877D01*
X39206898Y-31300500D01*
X39206903Y-31300500D01*
X40793097Y-31300500D01*
X40793102Y-31300500D01*
X40881564Y-31289877D01*
X41022342Y-31234361D01*
X41142922Y-31142922D01*
X41234361Y-31022342D01*
X41289877Y-30881564D01*
X41300500Y-30793102D01*
X41300500Y-29881947D01*
X43500000Y-29881947D01*
X43500000Y-30118052D01*
X43536934Y-30351247D01*
X43609897Y-30575802D01*
X43717081Y-30786163D01*
X43717089Y-30786176D01*
X43747584Y-30828149D01*
X43747586Y-30828150D01*
X44502094Y-30073641D01*
X44534075Y-30192993D01*
X44599901Y-30307007D01*
X44692993Y-30400099D01*
X44807007Y-30465925D01*
X44926358Y-30497905D01*
X44171849Y-31252413D01*
X44213828Y-31282914D01*
X44424197Y-31390102D01*
X44648752Y-31463065D01*
X44648751Y-31463065D01*
X44881948Y-31500000D01*
X45118052Y-31500000D01*
X45351247Y-31463065D01*
X45575802Y-31390102D01*
X45786171Y-31282914D01*
X45828149Y-31252413D01*
X45073641Y-30497905D01*
X45192993Y-30465925D01*
X45307007Y-30400099D01*
X45400099Y-30307007D01*
X45465925Y-30192993D01*
X45497905Y-30073641D01*
X46252413Y-30828149D01*
X46282914Y-30786171D01*
X46390102Y-30575802D01*
X46463065Y-30351247D01*
X46500000Y-30118052D01*
X46500000Y-29881947D01*
X46463065Y-29648752D01*
X46390102Y-29424197D01*
X46282914Y-29213828D01*
X46252413Y-29171849D01*
X45497905Y-29926357D01*
X45465925Y-29807007D01*
X45400099Y-29692993D01*
X45307007Y-29599901D01*
X45192993Y-29534075D01*
X45073642Y-29502094D01*
X45828150Y-28747586D01*
X45828149Y-28747584D01*
X45786176Y-28717089D01*
X45786163Y-28717081D01*
X45575802Y-28609897D01*
X45351247Y-28536934D01*
X45351248Y-28536934D01*
X45118052Y-28500000D01*
X44881948Y-28500000D01*
X44648752Y-28536934D01*
X44424197Y-28609897D01*
X44213824Y-28717087D01*
X44171849Y-28747584D01*
X44171848Y-28747585D01*
X44926358Y-29502094D01*
X44807007Y-29534075D01*
X44692993Y-29599901D01*
X44599901Y-29692993D01*
X44534075Y-29807007D01*
X44502094Y-29926357D01*
X43747585Y-29171848D01*
X43747584Y-29171849D01*
X43717087Y-29213824D01*
X43609897Y-29424197D01*
X43536934Y-29648752D01*
X43500000Y-29881947D01*
X41300500Y-29881947D01*
X41300500Y-29206898D01*
X41289877Y-29118436D01*
X41234361Y-28977658D01*
X41234360Y-28977657D01*
X41234360Y-28977656D01*
X41152547Y-28869770D01*
X41142922Y-28857077D01*
X41022343Y-28765639D01*
X40881561Y-28710122D01*
X40835926Y-28704642D01*
X40793102Y-28699500D01*
X39206898Y-28699500D01*
X39167853Y-28704188D01*
X39118438Y-28710122D01*
X38977656Y-28765639D01*
X38857077Y-28857077D01*
X38765639Y-28977656D01*
X38710122Y-29118438D01*
X38704188Y-29167853D01*
X38699500Y-29206898D01*
X11668178Y-29206898D01*
X11657555Y-29118436D01*
X11602039Y-28977658D01*
X11602038Y-28977657D01*
X11602038Y-28977656D01*
X11510600Y-28857077D01*
X11390021Y-28765639D01*
X11249239Y-28710122D01*
X11203604Y-28704642D01*
X11160780Y-28699500D01*
X9574576Y-28699500D01*
X9535531Y-28704188D01*
X9486116Y-28710122D01*
X9345334Y-28765639D01*
X9224755Y-28857077D01*
X9133317Y-28977656D01*
X9077800Y-29118438D01*
X9071866Y-29167853D01*
X9067178Y-29206898D01*
X6645557Y-29206898D01*
X6620091Y-29171849D01*
X5865583Y-29926357D01*
X5833603Y-29807007D01*
X5767777Y-29692993D01*
X5674685Y-29599901D01*
X5560671Y-29534075D01*
X5441320Y-29502094D01*
X6195828Y-28747586D01*
X6195827Y-28747584D01*
X6153854Y-28717089D01*
X6153841Y-28717081D01*
X5943480Y-28609897D01*
X5718925Y-28536934D01*
X5718926Y-28536934D01*
X5485730Y-28500000D01*
X5249626Y-28500000D01*
X5016430Y-28536934D01*
X4791875Y-28609897D01*
X4581502Y-28717087D01*
X4539527Y-28747584D01*
X4539526Y-28747585D01*
X5294036Y-29502094D01*
X5174685Y-29534075D01*
X5060671Y-29599901D01*
X4967579Y-29692993D01*
X4901753Y-29807007D01*
X4869772Y-29926357D01*
X4115263Y-29171848D01*
X4115262Y-29171849D01*
X4084765Y-29213824D01*
X3977575Y-29424197D01*
X3904612Y-29648752D01*
X3867678Y-29881947D01*
X500500Y-29881947D01*
X500500Y-27297675D01*
X14007398Y-27297675D01*
X14007398Y-27518118D01*
X14041883Y-27735849D01*
X14110001Y-27945500D01*
X14110002Y-27945503D01*
X14210085Y-28141922D01*
X14339650Y-28320255D01*
X14339654Y-28320260D01*
X14495534Y-28476140D01*
X14495539Y-28476144D01*
X14651090Y-28589157D01*
X14673876Y-28605712D01*
X14802273Y-28671134D01*
X14870291Y-28705792D01*
X14870294Y-28705793D01*
X14975119Y-28739852D01*
X15079947Y-28773912D01*
X15297676Y-28808397D01*
X15297677Y-28808397D01*
X15518119Y-28808397D01*
X15518120Y-28808397D01*
X15735849Y-28773912D01*
X15945504Y-28705792D01*
X16141920Y-28605712D01*
X16320263Y-28476139D01*
X16476140Y-28320262D01*
X16605713Y-28141919D01*
X16705793Y-27945503D01*
X16773913Y-27735848D01*
X16808398Y-27518119D01*
X16808398Y-27297676D01*
X33191603Y-27297676D01*
X33191603Y-27518119D01*
X33226088Y-27735850D01*
X33294206Y-27945501D01*
X33294207Y-27945504D01*
X33362225Y-28078994D01*
X33394287Y-28141919D01*
X33394290Y-28141923D01*
X33523855Y-28320256D01*
X33523859Y-28320261D01*
X33679739Y-28476141D01*
X33679744Y-28476145D01*
X33763414Y-28536934D01*
X33858081Y-28605713D01*
X33986478Y-28671135D01*
X34054496Y-28705793D01*
X34054499Y-28705794D01*
X34159324Y-28739853D01*
X34264152Y-28773913D01*
X34481881Y-28808398D01*
X34481882Y-28808398D01*
X34702324Y-28808398D01*
X34702325Y-28808398D01*
X34920054Y-28773913D01*
X35129709Y-28705793D01*
X35326125Y-28605713D01*
X35504468Y-28476140D01*
X35660345Y-28320263D01*
X35789918Y-28141920D01*
X35889998Y-27945504D01*
X35958118Y-27735849D01*
X35992603Y-27518120D01*
X35992603Y-27297676D01*
X35958118Y-27079947D01*
X35889998Y-26870293D01*
X35889998Y-26870291D01*
X35855340Y-26802273D01*
X35789918Y-26673876D01*
X35773363Y-26651090D01*
X35660350Y-26495539D01*
X35660346Y-26495534D01*
X35504466Y-26339654D01*
X35504461Y-26339650D01*
X35326128Y-26210085D01*
X35326127Y-26210084D01*
X35326125Y-26210083D01*
X35263199Y-26178020D01*
X35129709Y-26110002D01*
X35129706Y-26110001D01*
X34920055Y-26041883D01*
X34811189Y-26024640D01*
X34702325Y-26007398D01*
X34481881Y-26007398D01*
X34409304Y-26018893D01*
X34264150Y-26041883D01*
X34054499Y-26110001D01*
X34054496Y-26110002D01*
X33858077Y-26210085D01*
X33679744Y-26339650D01*
X33679739Y-26339654D01*
X33523859Y-26495534D01*
X33523855Y-26495539D01*
X33394290Y-26673872D01*
X33294207Y-26870291D01*
X33294206Y-26870294D01*
X33226088Y-27079945D01*
X33191603Y-27297676D01*
X16808398Y-27297676D01*
X16808398Y-27297675D01*
X16773913Y-27079946D01*
X16705793Y-26870292D01*
X16705793Y-26870290D01*
X16671135Y-26802272D01*
X16605713Y-26673875D01*
X16589158Y-26651089D01*
X16476145Y-26495538D01*
X16476141Y-26495533D01*
X16320261Y-26339653D01*
X16320256Y-26339649D01*
X16141923Y-26210084D01*
X16141922Y-26210083D01*
X16141920Y-26210082D01*
X16078994Y-26178019D01*
X15945504Y-26110001D01*
X15945501Y-26110000D01*
X15735850Y-26041882D01*
X15626984Y-26024639D01*
X15518120Y-26007397D01*
X15297676Y-26007397D01*
X15225099Y-26018892D01*
X15079945Y-26041882D01*
X14870294Y-26110000D01*
X14870291Y-26110001D01*
X14673872Y-26210084D01*
X14495539Y-26339649D01*
X14495534Y-26339653D01*
X14339654Y-26495533D01*
X14339650Y-26495538D01*
X14210085Y-26673871D01*
X14110002Y-26870290D01*
X14110001Y-26870293D01*
X14041883Y-27079944D01*
X14007398Y-27297675D01*
X500500Y-27297675D01*
X500500Y-22592103D01*
X13650139Y-22592103D01*
X13670745Y-22742019D01*
X13670745Y-22742020D01*
X13670746Y-22742022D01*
X13731035Y-22880823D01*
X13786076Y-22950887D01*
X13786079Y-22950890D01*
X13786083Y-22950895D01*
X15049104Y-24213915D01*
X15049124Y-24213933D01*
X15119173Y-24268962D01*
X15119178Y-24268966D01*
X15257979Y-24329255D01*
X15407898Y-24349862D01*
X15557817Y-24329255D01*
X15696618Y-24268966D01*
X15766682Y-24213925D01*
X17029719Y-22950887D01*
X17029729Y-22950875D01*
X17049420Y-22925808D01*
X17084761Y-22880823D01*
X17145050Y-22742022D01*
X17165657Y-22592103D01*
X17165657Y-22592102D01*
X32834343Y-22592102D01*
X32854949Y-22742018D01*
X32854949Y-22742019D01*
X32854950Y-22742021D01*
X32915239Y-22880822D01*
X32970280Y-22950886D01*
X32970283Y-22950889D01*
X32970287Y-22950894D01*
X34233308Y-24213914D01*
X34233328Y-24213932D01*
X34303378Y-24268962D01*
X34303382Y-24268965D01*
X34442183Y-24329254D01*
X34592102Y-24349861D01*
X34742021Y-24329254D01*
X34880822Y-24268965D01*
X34950886Y-24213924D01*
X36213923Y-22950886D01*
X36268965Y-22880822D01*
X36329254Y-22742021D01*
X36349861Y-22592102D01*
X36329254Y-22442183D01*
X36268965Y-22303382D01*
X36213924Y-22233318D01*
X36213919Y-22233313D01*
X36213916Y-22233309D01*
X34956223Y-20975617D01*
X34950895Y-20970289D01*
X34950875Y-20970271D01*
X34880825Y-20915241D01*
X34880822Y-20915239D01*
X34742021Y-20854950D01*
X34742018Y-20854949D01*
X34742019Y-20854949D01*
X34592102Y-20834343D01*
X34442185Y-20854949D01*
X34303382Y-20915239D01*
X34233309Y-20970287D01*
X32970289Y-22233308D01*
X32970271Y-22233328D01*
X32915241Y-22303378D01*
X32915239Y-22303381D01*
X32854949Y-22442185D01*
X32834343Y-22592102D01*
X17165657Y-22592102D01*
X17145050Y-22442184D01*
X17084761Y-22303383D01*
X17029720Y-22233319D01*
X17029715Y-22233314D01*
X17029712Y-22233310D01*
X15766691Y-20970290D01*
X15766671Y-20970272D01*
X15696621Y-20915242D01*
X15696618Y-20915240D01*
X15696616Y-20915239D01*
X15557817Y-20854951D01*
X15557814Y-20854950D01*
X15557815Y-20854950D01*
X15407898Y-20834344D01*
X15257981Y-20854950D01*
X15119178Y-20915240D01*
X15049105Y-20970288D01*
X13786085Y-22233309D01*
X13786067Y-22233329D01*
X13731037Y-22303379D01*
X13731035Y-22303382D01*
X13670745Y-22442186D01*
X13650139Y-22592103D01*
X500500Y-22592103D01*
X500500Y-20325000D01*
X43528818Y-20325000D01*
X45595856Y-20325000D01*
X45534075Y-20432007D01*
X45500000Y-20559174D01*
X45500000Y-20690826D01*
X45534075Y-20817993D01*
X45595856Y-20925000D01*
X43528818Y-20925000D01*
X43536934Y-20976249D01*
X43536936Y-20976255D01*
X43609897Y-21200804D01*
X43717085Y-21411171D01*
X43855866Y-21602186D01*
X43934566Y-21680886D01*
X43968051Y-21742209D01*
X43963067Y-21811901D01*
X43921195Y-21867834D01*
X43896973Y-21882001D01*
X43827233Y-21912795D01*
X43747794Y-21992234D01*
X43702415Y-22095006D01*
X43702415Y-22095008D01*
X43699500Y-22120131D01*
X43699500Y-24209856D01*
X43699502Y-24209882D01*
X43702413Y-24234987D01*
X43702415Y-24234991D01*
X43747793Y-24337764D01*
X43747794Y-24337765D01*
X43827235Y-24417206D01*
X43930009Y-24462585D01*
X43955135Y-24465500D01*
X48044864Y-24465499D01*
X48044879Y-24465497D01*
X48044882Y-24465497D01*
X48069987Y-24462586D01*
X48069988Y-24462585D01*
X48069991Y-24462585D01*
X48172765Y-24417206D01*
X48252206Y-24337765D01*
X48297585Y-24234991D01*
X48300500Y-24209865D01*
X48300499Y-22120136D01*
X48300497Y-22120117D01*
X48297586Y-22095012D01*
X48297585Y-22095010D01*
X48297585Y-22095009D01*
X48252206Y-21992235D01*
X48172765Y-21912794D01*
X48103027Y-21882001D01*
X48049651Y-21836914D01*
X48029124Y-21770128D01*
X48047963Y-21702846D01*
X48065433Y-21680885D01*
X48144136Y-21602182D01*
X48282914Y-21411171D01*
X48390102Y-21200804D01*
X48463063Y-20976255D01*
X48463065Y-20976249D01*
X48471182Y-20925000D01*
X46404144Y-20925000D01*
X46465925Y-20817993D01*
X46500000Y-20690826D01*
X46500000Y-20559174D01*
X46465925Y-20432007D01*
X46404144Y-20325000D01*
X48471182Y-20325000D01*
X48463065Y-20273750D01*
X48463063Y-20273744D01*
X48390102Y-20049195D01*
X48282914Y-19838828D01*
X48144133Y-19647813D01*
X47977186Y-19480866D01*
X47786171Y-19342085D01*
X47575802Y-19234897D01*
X47351247Y-19161934D01*
X47351248Y-19161934D01*
X47118052Y-19125000D01*
X46300000Y-19125000D01*
X46300000Y-20220855D01*
X46192993Y-20159075D01*
X46065826Y-20125000D01*
X45934174Y-20125000D01*
X45807007Y-20159075D01*
X45700000Y-20220855D01*
X45700000Y-19125000D01*
X44881948Y-19125000D01*
X44648752Y-19161934D01*
X44424197Y-19234897D01*
X44213828Y-19342085D01*
X44022813Y-19480866D01*
X43855866Y-19647813D01*
X43717085Y-19838828D01*
X43609897Y-20049195D01*
X43536936Y-20273744D01*
X43536934Y-20273750D01*
X43528818Y-20325000D01*
X500500Y-20325000D01*
X500500Y-16421988D01*
X5199500Y-16421988D01*
X5199500Y-16658010D01*
X5230307Y-16892013D01*
X5253971Y-16980327D01*
X5291394Y-17119992D01*
X5381714Y-17338044D01*
X5381719Y-17338055D01*
X5452677Y-17460956D01*
X5499727Y-17542449D01*
X5499729Y-17542452D01*
X5499730Y-17542453D01*
X5643406Y-17729696D01*
X5643412Y-17729703D01*
X5810295Y-17896586D01*
X5810301Y-17896591D01*
X5997550Y-18040272D01*
X6128918Y-18116117D01*
X6201943Y-18158279D01*
X6201948Y-18158281D01*
X6201951Y-18158283D01*
X6420007Y-18248605D01*
X6647986Y-18309692D01*
X6881989Y-18340499D01*
X6881996Y-18340499D01*
X7118004Y-18340499D01*
X7118011Y-18340499D01*
X7352014Y-18309692D01*
X7579993Y-18248605D01*
X7798049Y-18158283D01*
X8002450Y-18040272D01*
X8189699Y-17896591D01*
X8356592Y-17729698D01*
X8500273Y-17542449D01*
X8618284Y-17338048D01*
X8708606Y-17119992D01*
X8769693Y-16892013D01*
X8800500Y-16658010D01*
X8800500Y-16421988D01*
X8769693Y-16187985D01*
X8708606Y-15960006D01*
X8618284Y-15741950D01*
X8618282Y-15741947D01*
X8618280Y-15741942D01*
X8613022Y-15732835D01*
X8575785Y-15668340D01*
X8500273Y-15537549D01*
X8356592Y-15350300D01*
X8356587Y-15350294D01*
X8189704Y-15183411D01*
X8189697Y-15183405D01*
X8091294Y-15107898D01*
X21019674Y-15107898D01*
X22130223Y-15107898D01*
X22079585Y-15195606D01*
X22042103Y-15335489D01*
X22042103Y-15480307D01*
X22079585Y-15620190D01*
X22130223Y-15707898D01*
X21019674Y-15707898D01*
X21031500Y-15782567D01*
X21109322Y-16022082D01*
X21223660Y-16246481D01*
X21371693Y-16450229D01*
X21371693Y-16450230D01*
X21549770Y-16628307D01*
X21753519Y-16776340D01*
X21977918Y-16890678D01*
X22217433Y-16968500D01*
X22292103Y-16980327D01*
X22292103Y-15869778D01*
X22379811Y-15920416D01*
X22519694Y-15957898D01*
X22664512Y-15957898D01*
X22804395Y-15920416D01*
X22892103Y-15869778D01*
X22892103Y-16980326D01*
X22966772Y-16968500D01*
X23206287Y-16890678D01*
X23430686Y-16776340D01*
X23634434Y-16628307D01*
X23634435Y-16628307D01*
X23812512Y-16450230D01*
X23812512Y-16450229D01*
X23960545Y-16246481D01*
X24074883Y-16022082D01*
X24152705Y-15782567D01*
X24164532Y-15707898D01*
X23053983Y-15707898D01*
X23104621Y-15620190D01*
X23142103Y-15480307D01*
X23142103Y-15335489D01*
X23104621Y-15195606D01*
X23053983Y-15107898D01*
X24164532Y-15107898D01*
X24164532Y-15107897D01*
X25835468Y-15107897D01*
X26946017Y-15107897D01*
X26895379Y-15195605D01*
X26857897Y-15335488D01*
X26857897Y-15480306D01*
X26895379Y-15620189D01*
X26946017Y-15707897D01*
X25835468Y-15707897D01*
X25847294Y-15782566D01*
X25925116Y-16022081D01*
X26039454Y-16246480D01*
X26187487Y-16450228D01*
X26187487Y-16450229D01*
X26365564Y-16628306D01*
X26569313Y-16776339D01*
X26793712Y-16890677D01*
X27033227Y-16968499D01*
X27107897Y-16980326D01*
X27107897Y-15869777D01*
X27195605Y-15920415D01*
X27335488Y-15957897D01*
X27480306Y-15957897D01*
X27620189Y-15920415D01*
X27707897Y-15869777D01*
X27707897Y-16980325D01*
X27782566Y-16968499D01*
X28022081Y-16890677D01*
X28246480Y-16776339D01*
X28450228Y-16628306D01*
X28450229Y-16628306D01*
X28628306Y-16450229D01*
X28628306Y-16450228D01*
X28776339Y-16246480D01*
X28890677Y-16022081D01*
X28968499Y-15782566D01*
X28980326Y-15707897D01*
X27869777Y-15707897D01*
X27920415Y-15620189D01*
X27957897Y-15480306D01*
X27957897Y-15335488D01*
X27920415Y-15195605D01*
X27869777Y-15107897D01*
X28980326Y-15107897D01*
X28968499Y-15033227D01*
X28890677Y-14793712D01*
X28776339Y-14569313D01*
X28743737Y-14524440D01*
X28693380Y-14455131D01*
X41199500Y-14455131D01*
X41199500Y-17544856D01*
X41199502Y-17544882D01*
X41202413Y-17569987D01*
X41202415Y-17569991D01*
X41247793Y-17672764D01*
X41247794Y-17672765D01*
X41327235Y-17752206D01*
X41430009Y-17797585D01*
X41455135Y-17800500D01*
X44544864Y-17800499D01*
X44544879Y-17800497D01*
X44544882Y-17800497D01*
X44569987Y-17797586D01*
X44569988Y-17797585D01*
X44569991Y-17797585D01*
X44672765Y-17752206D01*
X44752206Y-17672765D01*
X44797585Y-17569991D01*
X44800500Y-17544865D01*
X44800499Y-14455136D01*
X44800497Y-14455117D01*
X44797586Y-14430012D01*
X44797585Y-14430010D01*
X44797585Y-14430009D01*
X44752206Y-14327235D01*
X44672765Y-14247794D01*
X44672763Y-14247793D01*
X44569992Y-14202415D01*
X44544865Y-14199500D01*
X41455143Y-14199500D01*
X41455117Y-14199502D01*
X41430012Y-14202413D01*
X41430008Y-14202415D01*
X41327235Y-14247793D01*
X41247794Y-14327234D01*
X41202415Y-14430006D01*
X41202415Y-14430008D01*
X41199500Y-14455131D01*
X28693380Y-14455131D01*
X28628306Y-14365565D01*
X28628306Y-14365564D01*
X28450229Y-14187487D01*
X28246480Y-14039454D01*
X28022079Y-13925115D01*
X27782563Y-13847293D01*
X27707897Y-13835467D01*
X27707897Y-14946016D01*
X27620189Y-14895379D01*
X27480306Y-14857897D01*
X27335488Y-14857897D01*
X27195605Y-14895379D01*
X27107897Y-14946016D01*
X27107897Y-13835467D01*
X27107896Y-13835467D01*
X27033230Y-13847293D01*
X26793714Y-13925115D01*
X26569313Y-14039454D01*
X26365565Y-14187487D01*
X26365564Y-14187487D01*
X26187487Y-14365564D01*
X26187487Y-14365565D01*
X26039454Y-14569313D01*
X25925116Y-14793712D01*
X25847294Y-15033227D01*
X25835468Y-15107897D01*
X24164532Y-15107897D01*
X24152705Y-15033228D01*
X24074883Y-14793713D01*
X23960545Y-14569314D01*
X23812512Y-14365566D01*
X23812512Y-14365565D01*
X23634435Y-14187488D01*
X23430686Y-14039455D01*
X23206285Y-13925116D01*
X22966769Y-13847294D01*
X22892103Y-13835468D01*
X22892103Y-14946017D01*
X22804395Y-14895380D01*
X22664512Y-14857898D01*
X22519694Y-14857898D01*
X22379811Y-14895380D01*
X22292103Y-14946017D01*
X22292103Y-13835468D01*
X22292102Y-13835468D01*
X22217436Y-13847294D01*
X21977920Y-13925116D01*
X21753519Y-14039455D01*
X21549771Y-14187488D01*
X21549770Y-14187488D01*
X21371693Y-14365565D01*
X21371693Y-14365566D01*
X21223660Y-14569314D01*
X21109322Y-14793713D01*
X21031500Y-15033228D01*
X21019674Y-15107898D01*
X8091294Y-15107898D01*
X8002454Y-15039729D01*
X8002453Y-15039728D01*
X8002450Y-15039726D01*
X7877850Y-14967788D01*
X7798056Y-14921718D01*
X7798045Y-14921713D01*
X7579993Y-14831393D01*
X7352010Y-14770305D01*
X7118020Y-14739500D01*
X7118017Y-14739499D01*
X7118011Y-14739499D01*
X6881989Y-14739499D01*
X6881983Y-14739499D01*
X6881979Y-14739500D01*
X6647989Y-14770305D01*
X6420006Y-14831393D01*
X6201954Y-14921713D01*
X6201943Y-14921718D01*
X5997545Y-15039729D01*
X5810302Y-15183405D01*
X5810295Y-15183411D01*
X5643412Y-15350294D01*
X5643406Y-15350301D01*
X5499730Y-15537544D01*
X5381719Y-15741942D01*
X5381714Y-15741953D01*
X5291394Y-15960005D01*
X5230306Y-16187988D01*
X5199501Y-16421978D01*
X5199500Y-16421988D01*
X500500Y-16421988D01*
X500500Y-9915131D01*
X5199500Y-9915131D01*
X5199500Y-13004856D01*
X5199502Y-13004882D01*
X5202413Y-13029987D01*
X5202415Y-13029991D01*
X5247793Y-13132764D01*
X5247794Y-13132765D01*
X5327235Y-13212206D01*
X5430009Y-13257585D01*
X5455135Y-13260500D01*
X8544864Y-13260499D01*
X8544879Y-13260497D01*
X8544882Y-13260497D01*
X8569987Y-13257586D01*
X8569988Y-13257585D01*
X8569991Y-13257585D01*
X8672765Y-13212206D01*
X8752206Y-13132765D01*
X8797585Y-13029991D01*
X8800500Y-13004865D01*
X8800499Y-10788906D01*
X41000000Y-10788906D01*
X41000000Y-11051095D01*
X41034220Y-11311010D01*
X41034222Y-11311021D01*
X41102075Y-11564256D01*
X41202404Y-11806472D01*
X41202409Y-11806483D01*
X41333488Y-12033517D01*
X41333494Y-12033525D01*
X41389379Y-12106356D01*
X42294057Y-11201679D01*
X42326497Y-11279996D01*
X42409670Y-11404473D01*
X42515528Y-11510331D01*
X42640005Y-11593504D01*
X42718321Y-11625943D01*
X41813643Y-12530620D01*
X41886475Y-12586506D01*
X41886483Y-12586512D01*
X42113517Y-12717591D01*
X42113528Y-12717596D01*
X42355744Y-12817925D01*
X42608979Y-12885778D01*
X42608990Y-12885780D01*
X42868905Y-12920000D01*
X42868920Y-12920001D01*
X43131080Y-12920001D01*
X43131094Y-12920000D01*
X43391009Y-12885780D01*
X43391020Y-12885778D01*
X43644255Y-12817925D01*
X43886471Y-12717596D01*
X43886482Y-12717591D01*
X44113520Y-12586509D01*
X44186355Y-12530620D01*
X44186355Y-12530619D01*
X43281678Y-11625943D01*
X43359995Y-11593504D01*
X43484472Y-11510331D01*
X43590330Y-11404473D01*
X43673503Y-11279996D01*
X43705942Y-11201679D01*
X44610618Y-12106356D01*
X44610619Y-12106356D01*
X44666508Y-12033521D01*
X44797590Y-11806483D01*
X44797595Y-11806472D01*
X44897924Y-11564256D01*
X44965777Y-11311021D01*
X44965779Y-11311010D01*
X44999999Y-11051095D01*
X45000000Y-11051081D01*
X45000000Y-10788920D01*
X44999999Y-10788906D01*
X44965779Y-10528991D01*
X44965777Y-10528980D01*
X44897924Y-10275745D01*
X44797595Y-10033529D01*
X44797590Y-10033518D01*
X44666511Y-9806484D01*
X44666505Y-9806476D01*
X44610619Y-9733644D01*
X43705942Y-10638321D01*
X43673503Y-10560006D01*
X43590330Y-10435529D01*
X43484472Y-10329671D01*
X43359995Y-10246498D01*
X43281678Y-10214058D01*
X44186355Y-9309380D01*
X44113524Y-9253495D01*
X44113516Y-9253489D01*
X43886482Y-9122410D01*
X43886471Y-9122405D01*
X43644255Y-9022076D01*
X43391020Y-8954223D01*
X43391009Y-8954221D01*
X43131094Y-8920001D01*
X42868905Y-8920001D01*
X42608990Y-8954221D01*
X42608979Y-8954223D01*
X42355744Y-9022076D01*
X42113528Y-9122405D01*
X42113517Y-9122410D01*
X41886485Y-9253487D01*
X41886478Y-9253493D01*
X41813643Y-9309379D01*
X41813643Y-9309380D01*
X42718321Y-10214058D01*
X42640005Y-10246498D01*
X42515528Y-10329671D01*
X42409670Y-10435529D01*
X42326497Y-10560006D01*
X42294057Y-10638322D01*
X41389379Y-9733644D01*
X41389378Y-9733644D01*
X41333492Y-9806479D01*
X41333486Y-9806486D01*
X41202409Y-10033518D01*
X41202404Y-10033529D01*
X41102075Y-10275745D01*
X41034222Y-10528980D01*
X41034220Y-10528991D01*
X41000000Y-10788906D01*
X8800499Y-10788906D01*
X8800499Y-9915136D01*
X8800497Y-9915117D01*
X8797586Y-9890012D01*
X8797585Y-9890010D01*
X8797585Y-9890009D01*
X8752206Y-9787235D01*
X8672765Y-9707794D01*
X8672763Y-9707793D01*
X8569992Y-9662415D01*
X8544865Y-9659500D01*
X5455143Y-9659500D01*
X5455117Y-9659502D01*
X5430012Y-9662413D01*
X5430008Y-9662415D01*
X5327235Y-9707793D01*
X5247794Y-9787234D01*
X5202415Y-9890006D01*
X5202415Y-9890008D01*
X5199500Y-9915131D01*
X500500Y-9915131D01*
X500500Y-7381995D01*
X11899500Y-7381995D01*
X11899500Y-7618004D01*
X11899501Y-7618020D01*
X11930306Y-7852010D01*
X11991394Y-8079993D01*
X12081714Y-8298045D01*
X12081719Y-8298056D01*
X12152677Y-8420957D01*
X12199727Y-8502450D01*
X12199729Y-8502453D01*
X12199730Y-8502454D01*
X12343406Y-8689697D01*
X12343412Y-8689704D01*
X12510295Y-8856587D01*
X12510301Y-8856592D01*
X12697550Y-9000273D01*
X12828918Y-9076118D01*
X12901943Y-9118280D01*
X12901948Y-9118282D01*
X12901951Y-9118284D01*
X13120007Y-9208606D01*
X13347986Y-9269693D01*
X13581989Y-9300500D01*
X13581996Y-9300500D01*
X13818004Y-9300500D01*
X13818011Y-9300500D01*
X14052014Y-9269693D01*
X14279993Y-9208606D01*
X14498049Y-9118284D01*
X14702450Y-9000273D01*
X14889699Y-8856592D01*
X15056592Y-8689699D01*
X15200273Y-8502450D01*
X15318284Y-8298049D01*
X15408606Y-8079993D01*
X15469693Y-7852014D01*
X15500500Y-7618011D01*
X15500500Y-7381995D01*
X34499500Y-7381995D01*
X34499500Y-7618004D01*
X34499501Y-7618020D01*
X34530306Y-7852010D01*
X34591394Y-8079993D01*
X34681714Y-8298045D01*
X34681719Y-8298056D01*
X34752677Y-8420957D01*
X34799727Y-8502450D01*
X34799729Y-8502453D01*
X34799730Y-8502454D01*
X34943406Y-8689697D01*
X34943412Y-8689704D01*
X35110295Y-8856587D01*
X35110301Y-8856592D01*
X35297550Y-9000273D01*
X35428918Y-9076118D01*
X35501943Y-9118280D01*
X35501948Y-9118282D01*
X35501951Y-9118284D01*
X35720007Y-9208606D01*
X35947986Y-9269693D01*
X36181989Y-9300500D01*
X36181996Y-9300500D01*
X36418004Y-9300500D01*
X36418011Y-9300500D01*
X36652014Y-9269693D01*
X36879993Y-9208606D01*
X37098049Y-9118284D01*
X37302450Y-9000273D01*
X37489699Y-8856592D01*
X37656592Y-8689699D01*
X37800273Y-8502450D01*
X37918284Y-8298049D01*
X38008606Y-8079993D01*
X38069693Y-7852014D01*
X38100500Y-7618011D01*
X38100500Y-7381989D01*
X38069693Y-7147986D01*
X38008606Y-6920007D01*
X37918284Y-6701951D01*
X37918282Y-6701948D01*
X37918280Y-6701943D01*
X37876118Y-6628918D01*
X37800273Y-6497550D01*
X37656592Y-6310301D01*
X37656587Y-6310295D01*
X37489704Y-6143412D01*
X37489697Y-6143406D01*
X37302454Y-5999730D01*
X37302453Y-5999729D01*
X37302450Y-5999727D01*
X37220957Y-5952677D01*
X37098056Y-5881719D01*
X37098045Y-5881714D01*
X36879993Y-5791394D01*
X36652010Y-5730306D01*
X36418020Y-5699501D01*
X36418017Y-5699500D01*
X36418011Y-5699500D01*
X36181989Y-5699500D01*
X36181983Y-5699500D01*
X36181979Y-5699501D01*
X35947989Y-5730306D01*
X35720006Y-5791394D01*
X35501954Y-5881714D01*
X35501943Y-5881719D01*
X35297545Y-5999730D01*
X35110302Y-6143406D01*
X35110295Y-6143412D01*
X34943412Y-6310295D01*
X34943406Y-6310302D01*
X34799730Y-6497545D01*
X34681719Y-6701943D01*
X34681714Y-6701954D01*
X34591394Y-6920006D01*
X34530306Y-7147989D01*
X34499501Y-7381979D01*
X34499500Y-7381995D01*
X15500500Y-7381995D01*
X15500500Y-7381989D01*
X15469693Y-7147986D01*
X15408606Y-6920007D01*
X15318284Y-6701951D01*
X15318282Y-6701948D01*
X15318280Y-6701943D01*
X15276118Y-6628918D01*
X15200273Y-6497550D01*
X15056592Y-6310301D01*
X15056587Y-6310295D01*
X14889704Y-6143412D01*
X14889697Y-6143406D01*
X14702454Y-5999730D01*
X14702453Y-5999729D01*
X14702450Y-5999727D01*
X14620957Y-5952677D01*
X14498056Y-5881719D01*
X14498045Y-5881714D01*
X14279993Y-5791394D01*
X14052010Y-5730306D01*
X13818020Y-5699501D01*
X13818017Y-5699500D01*
X13818011Y-5699500D01*
X13581989Y-5699500D01*
X13581983Y-5699500D01*
X13581979Y-5699501D01*
X13347989Y-5730306D01*
X13120006Y-5791394D01*
X12901954Y-5881714D01*
X12901943Y-5881719D01*
X12697545Y-5999730D01*
X12510302Y-6143406D01*
X12510295Y-6143412D01*
X12343412Y-6310295D01*
X12343406Y-6310302D01*
X12199730Y-6497545D01*
X12081719Y-6701943D01*
X12081714Y-6701954D01*
X11991394Y-6920006D01*
X11930306Y-7147989D01*
X11899501Y-7381979D01*
X11899500Y-7381995D01*
X500500Y-7381995D01*
X500500Y-3503246D01*
X500670Y-3496756D01*
X516592Y-3192953D01*
X517949Y-3180046D01*
X565028Y-2882794D01*
X567723Y-2870107D01*
X645627Y-2579368D01*
X649636Y-2567033D01*
X757493Y-2286054D01*
X762763Y-2274215D01*
X899415Y-2006023D01*
X905891Y-1994808D01*
X1069819Y-1742380D01*
X1077434Y-1731899D01*
X1266858Y-1497979D01*
X1275525Y-1488354D01*
X1488354Y-1275525D01*
X1497979Y-1266858D01*
X1731899Y-1077434D01*
X1742380Y-1069819D01*
X1994808Y-905891D01*
X2006023Y-899415D01*
X2274215Y-762763D01*
X2286054Y-757493D01*
X2567040Y-649633D01*
X2579368Y-645627D01*
X2870107Y-567723D01*
X2882786Y-565029D01*
X3180046Y-517949D01*
X3192951Y-516592D01*
X3496756Y-500669D01*
X3503246Y-500500D01*
X3565892Y-500500D01*
X46434108Y-500500D01*
X46496754Y-500500D01*
X46503244Y-500670D01*
G37*
%TD.AperFunction*%
%TD*%
M02*
